<svg width="16" height="16" viewBox="0 0 16 16" fill="none" xmlns="http://www.w3.org/2000/svg">
<path fill-rule="evenodd" clip-rule="evenodd" d="M8.00016 3.33337C8.36835 3.33337 8.66683 3.63185 8.66683 4.00004V7.33337H12.0002C12.3684 7.33337 12.6668 7.63185 12.6668 8.00004C12.6668 8.36823 12.3684 8.66671 12.0002 8.66671H8.66683V12C8.66683 12.3682 8.36835 12.6667 8.00016 12.6667C7.63197 12.6667 7.3335 12.3682 7.3335 12V8.66671H4.00016C3.63197 8.66671 3.3335 8.36823 3.3335 8.00004C3.3335 7.63185 3.63197 7.33337 4.00016 7.33337H7.3335V4.00004C7.3335 3.63185 7.63197 3.33337 8.00016 3.33337Z" fill="white" fill-opacity="0.8"/>
</svg>
