<svg width="16" height="16" viewBox="0 0 16 16" fill="none" xmlns="http://www.w3.org/2000/svg">
<path fill-rule="evenodd" clip-rule="evenodd" d="M7.31202 1.33334H8.68799C8.98042 1.33334 9.23275 1.33333 9.44159 1.34758C9.66147 1.36258 9.88142 1.39558 10.0987 1.48559C10.5888 1.6886 10.9781 2.07797 11.181 2.56797C11.271 2.78521 11.304 3.00512 11.3191 3.22502C11.3214 3.25992 11.3234 3.29603 11.3251 3.33334H13.3333C13.7015 3.33334 14 3.63182 14 4.00001C14 4.3682 13.7015 4.66668 13.3333 4.66668H12.6667L12.6667 11.8941C12.6667 12.2447 12.6667 12.5473 12.6464 12.7966C12.6249 13.0601 12.5774 13.3224 12.4488 13.5747C12.2569 13.9514 11.9505 14.2571 11.5745 14.4487C11.3223 14.5772 11.0603 14.6247 10.7967 14.6463C10.547 14.6667 10.2438 14.6667 9.89226 14.6667H6.10806C5.75648 14.6667 5.45315 14.6667 5.20331 14.6463C4.93972 14.6248 4.67749 14.5772 4.4252 14.4487C4.04878 14.2569 3.74302 13.9509 3.55132 13.5747C3.42279 13.3224 3.37525 13.0603 3.35371 12.7967C3.33331 12.547 3.33332 12.2438 3.33333 11.8924L3.33333 4.66668H2.66667C2.29848 4.66668 2 4.3682 2 4.00001C2 3.63182 2.29848 3.33334 2.66667 3.33334H4.67489C4.67654 3.29606 4.67852 3.25996 4.6809 3.22509C4.6959 3.0052 4.7289 2.78526 4.81891 2.56797C5.02183 2.07806 5.41092 1.68863 5.90113 1.48559C6.11844 1.39557 6.33844 1.36258 6.55834 1.34758C6.76721 1.33333 7.01958 1.33334 7.31202 1.33334ZM6.01 3.33334H9.98997C9.9896 3.32747 9.98922 3.32165 9.98883 3.31591C9.97845 3.16392 9.96069 3.106 9.94918 3.07821C9.8815 2.91481 9.75175 2.78506 9.58846 2.71742C9.56071 2.70593 9.50283 2.68819 9.35083 2.67782C9.19284 2.66704 8.98642 2.66668 8.66667 2.66668H7.33333C7.01359 2.66668 6.80711 2.66704 6.64908 2.67782C6.497 2.68819 6.43909 2.70594 6.41137 2.71742C6.24817 2.78503 6.11847 2.91471 6.05075 3.07821C6.03926 3.10595 6.02151 3.16384 6.01114 3.31585C6.01075 3.32161 6.01037 3.32744 6.01 3.33334ZM4.66667 4.66668V11.8667C4.66667 12.251 4.66719 12.4992 4.68262 12.6881C4.69742 12.8693 4.72254 12.9364 4.73933 12.9694C4.8033 13.0949 4.90518 13.1968 5.03052 13.2607C5.06346 13.2774 5.13065 13.3026 5.31188 13.3174C5.50085 13.3328 5.74911 13.3333 6.13346 13.3333H9.8668C10.2512 13.3333 10.4993 13.3328 10.6881 13.3174C10.8691 13.3026 10.9362 13.2775 10.9692 13.2607C11.095 13.1966 11.1971 13.0945 11.2608 12.9694C11.2776 12.9365 11.3027 12.8694 11.3174 12.6882C11.3329 12.4993 11.3333 12.2511 11.3333 11.8667V4.66668H4.66667Z" fill="#C73030" fill-opacity="0.8"/>
</svg>
