<svg width="14" height="12" viewBox="0 0 14 12" fill="none" xmlns="http://www.w3.org/2000/svg">
<path fill-rule="evenodd" clip-rule="evenodd" d="M6.00813 3.82595e-06C6.01472 5.74527e-06 6.02137 7.74803e-06 6.02808 7.74803e-06H7.97221C7.97892 7.74803e-06 7.98556 5.74527e-06 7.99215 3.82595e-06C8.086 -2.40459e-05 8.16771 -4.83291e-05 8.24556 0.00569114C9.03484 0.0638769 9.72445 0.560839 10.0293 1.29127C10.0596 1.36402 10.0856 1.44197 10.1159 1.53296L10.1212 1.54877C10.1235 1.5559 10.126 1.5632 10.1285 1.57065C10.1528 1.64326 10.1816 1.72938 10.1984 1.80787C10.2193 1.90607 10.2294 2.00386 10.2296 2.10006L11.0874 2.10006C11.4564 2.10005 11.7747 2.10003 12.0368 2.12146C12.3136 2.14408 12.5887 2.19401 12.8536 2.32895C13.2484 2.53014 13.5701 2.85129 13.7716 3.24672C13.9066 3.51167 13.9565 3.787 13.979 4.06371C14.0004 4.32545 14.0004 4.6432 14.0003 5.01139V8.98904C14.0004 9.35721 14.0004 9.67493 13.979 9.93666C13.9565 10.2134 13.9066 10.4887 13.7716 10.7536C13.5701 11.1491 13.2484 11.4702 12.8536 11.6714C12.5887 11.8063 12.3136 11.8563 12.0368 11.8789C11.7746 11.9003 11.4563 11.9003 11.0871 11.9003H2.91353C2.54437 11.9003 2.22587 11.9003 1.96352 11.8789C1.68675 11.8563 1.4114 11.8064 1.14649 11.6714C0.751193 11.47 0.430155 11.1486 0.228893 10.7536C0.0939353 10.4888 0.0440121 10.2135 0.0214005 9.93677C-2.27632e-05 9.67457 -1.19152e-05 9.35623 6.02091e-07 8.98722V5.01316C-1.19152e-05 4.64414 -2.27632e-05 4.3258 0.0214004 4.0636C0.0440118 3.78685 0.0939345 3.51159 0.228893 3.24672C0.43014 2.85175 0.751163 2.53038 1.14649 2.32895C1.41141 2.19397 1.68677 2.14406 1.96354 2.12146C2.22581 2.10003 2.54422 2.10005 2.91325 2.10006L3.77106 2.10006C3.7712 2.00386 3.78132 1.90607 3.80228 1.80787C3.81899 1.72953 3.84785 1.64338 3.87203 1.57116C3.87459 1.56353 3.87709 1.55605 3.87952 1.54875C3.88165 1.54238 3.88375 1.53606 3.88583 1.52981C3.91548 1.44078 3.94128 1.36331 3.97134 1.29127C4.27609 0.560988 4.96534 0.0638887 5.75478 0.00569114C5.83264 -4.83291e-05 5.91429 -2.40459e-05 6.00813 3.82595e-06ZM5.21323 3.50009H2.94021C2.53662 3.50009 2.27594 3.50064 2.07751 3.51684C1.88721 3.53239 1.81667 3.55878 1.7821 3.57639C1.65056 3.64341 1.54354 3.75043 1.47633 3.88232C1.4587 3.91694 1.43232 3.98744 1.41678 4.17761C1.40058 4.37595 1.40004 4.63654 1.40004 5.04014V8.96024C1.40004 9.36383 1.40058 9.62443 1.41678 9.82276C1.43232 10.0129 1.4587 10.0834 1.47633 10.118C1.54352 10.2499 1.65053 10.3569 1.7821 10.4239C1.81668 10.4416 1.88723 10.468 2.07753 10.4835C2.27594 10.4997 2.53663 10.5003 2.94021 10.5003H11.0604C11.464 10.5003 11.7245 10.4997 11.9228 10.4835C12.1128 10.468 12.1833 10.4416 12.218 10.4239C12.35 10.3567 12.4572 10.2494 12.5242 10.118C12.5418 10.0835 12.5681 10.0131 12.5836 9.82287C12.5998 9.62449 12.6003 9.3639 12.6003 8.96024V5.04014C12.6003 4.63647 12.5998 4.37588 12.5836 4.1775C12.5681 3.98729 12.5418 3.91686 12.5242 3.88232C12.4572 3.75089 12.35 3.64365 12.218 3.57639C12.1833 3.55874 12.1128 3.53237 11.9228 3.51684C11.7245 3.50064 11.464 3.50009 11.0604 3.50009H8.78706C8.77003 3.50015 8.75339 3.50013 8.73737 3.50011C8.72959 3.5001 8.72196 3.50009 8.71449 3.50009H5.28568C5.27821 3.50009 5.27058 3.5001 5.2628 3.50011C5.24681 3.50013 5.23021 3.50015 5.21323 3.50009ZM8.82838 2.09949C8.82785 2.09777 8.82725 2.09581 8.82655 2.0936C8.81975 2.07192 8.80996 2.04245 8.79297 1.9915C8.75372 1.87374 8.74481 1.84864 8.73722 1.83045C8.63563 1.58701 8.40577 1.42133 8.14263 1.40194C8.12316 1.4005 8.09715 1.40004 7.97221 1.40004H6.02808C5.90314 1.40004 5.87719 1.4005 5.85771 1.40194C5.59474 1.42132 5.36504 1.58686 5.26338 1.83045C5.25587 1.84847 5.24722 1.87295 5.20771 1.99148C5.19069 2.04255 5.18088 2.07202 5.17405 2.09379C5.17338 2.09592 5.17279 2.09782 5.17228 2.09949C5.17406 2.09954 5.1761 2.09958 5.1784 2.09962C5.20102 2.10003 5.232 2.10006 5.28568 2.10006H8.71449C8.76816 2.10006 8.79927 2.10003 8.82202 2.09962C8.82442 2.09958 8.82653 2.09953 8.82838 2.09949ZM7.00017 5.60014C6.22695 5.60014 5.60014 6.22696 5.60014 7.00018C5.60014 7.7734 6.22695 8.40021 7.00017 8.40021C7.77339 8.40021 8.40021 7.7734 8.40021 7.00018C8.40021 6.22696 7.77339 5.60014 7.00017 5.60014ZM4.2001 7.00018C4.2001 5.45374 5.45374 4.20011 7.00017 4.20011C8.54661 4.20011 9.80024 5.45374 9.80024 7.00018C9.80024 8.54661 8.54661 9.80025 7.00017 9.80025C5.45374 9.80025 4.2001 8.54661 4.2001 7.00018Z" fill="white"/>
</svg>
