<svg width="184" height="32" viewBox="0 0 184 32" fill="none" xmlns="http://www.w3.org/2000/svg">
<g opacity="0.06">
<path d="M0.354079 16.3796L16.3796 0.354079M5.36205 16.3796L21.3876 0.354079M10.37 16.3796L26.3955 0.354079M0.354079 11.3716L11.3716 0.354079M0.354079 6.36365L6.36365 0.354079M15.378 16.3796L31.4035 0.354079M20.386 16.3796L36.4115 0.354079M25.3939 16.3796L41.4195 0.354079M30.4019 16.3796L46.4274 0.354079M35.4099 16.3796L48.4306 3.35886M40.4179 16.3796L48.4306 8.36684M45.4258 16.3796L48.4306 13.3748" stroke="black"/>
<path d="M45.4258 16.3796L61.4514 0.354079M50.4338 16.3796L66.4593 0.354079M55.4418 16.3796L71.4673 0.354079M45.4258 11.3716L56.4434 0.354079M45.4258 6.36365L51.4354 0.354079M60.4498 16.3796L76.4753 0.354079M65.4577 16.3796L81.4833 0.354079M70.4657 16.3796L86.4912 0.354079M75.4737 16.3796L91.4992 0.354079M80.4817 16.3796L93.5024 3.35886M85.4896 16.3796L93.5024 8.36684M90.4976 16.3796L93.5024 13.3748" stroke="black"/>
<path d="M90.4976 16.3796L106.523 0.354079M95.5056 16.3796L111.531 0.354079M100.514 16.3796L116.539 0.354079M90.4976 11.3716L101.515 0.354079M90.4976 6.36365L96.5072 0.354079M105.522 16.3796L121.547 0.354079M110.53 16.3796L126.555 0.354079M115.537 16.3796L131.563 0.354079M120.545 16.3796L136.571 0.354079M125.553 16.3796L138.574 3.35886M130.561 16.3796L138.574 8.36684M135.569 16.3796L138.574 13.3748" stroke="black"/>
<path d="M135.569 16.3796L151.595 0.354079M140.577 16.3796L156.603 0.354079M145.585 16.3796L161.611 0.354079M135.569 11.3716L146.587 0.354079M135.569 6.36365L141.579 0.354079M150.593 16.3796L166.619 0.354079M155.601 16.3796L171.627 0.354079M160.609 16.3796L176.635 0.354079M165.617 16.3796L181.643 0.354079M170.625 16.3796L183.646 3.35886M175.633 16.3796L183.646 8.36684M180.641 16.3796L183.646 13.3748" stroke="black"/>
<path d="M0.354079 31.4035L16.3796 15.378M5.36205 31.4035L21.3876 15.378M10.37 31.4035L26.3955 15.378M0.354079 26.3955L11.3716 15.378M0.354079 21.3876L6.36365 15.378M15.378 31.4035L31.4035 15.378M20.386 31.4035L36.4115 15.378M25.3939 31.4035L41.4195 15.378M30.4019 31.4035L46.4274 15.378M35.4099 31.4035L48.4306 18.3828M40.4179 31.4035L48.4306 23.3908M45.4258 31.4035L48.4306 28.3987" stroke="black"/>
<path d="M45.4258 31.4035L61.4514 15.378M50.4338 31.4035L66.4593 15.378M55.4418 31.4035L71.4673 15.378M45.4258 26.3955L56.4434 15.378M45.4258 21.3876L51.4354 15.378M60.4498 31.4035L76.4753 15.378M65.4577 31.4035L81.4833 15.378M70.4657 31.4035L86.4912 15.378M75.4737 31.4035L91.4992 15.378M80.4817 31.4035L93.5024 18.3828M85.4896 31.4035L93.5024 23.3908M90.4976 31.4035L93.5024 28.3987" stroke="black"/>
<path d="M90.4976 31.4035L106.523 15.378M95.5056 31.4035L111.531 15.378M100.514 31.4035L116.539 15.378M90.4976 26.3955L101.515 15.378M90.4976 21.3876L96.5072 15.378M105.522 31.4035L121.547 15.378M110.53 31.4035L126.555 15.378M115.537 31.4035L131.563 15.378M120.545 31.4035L136.571 15.378M125.553 31.4035L138.574 18.3828M130.561 31.4035L138.574 23.3908M135.569 31.4035L138.574 28.3987" stroke="black"/>
<path d="M135.569 31.4035L151.595 15.378M140.577 31.4035L156.603 15.378M145.585 31.4035L161.611 15.378M135.569 26.3955L146.587 15.378M135.569 21.3876L141.579 15.378M150.593 31.4035L166.619 15.378M155.601 31.4035L171.627 15.378M160.609 31.4035L176.635 15.378M165.617 31.4035L181.643 15.378M170.625 31.4035L183.646 18.3828M175.633 31.4035L183.646 23.3908M180.641 31.4035L183.646 28.3987" stroke="black"/>
</g>
</svg>
