<svg width="16" height="16" viewBox="0 0 16 16" fill="none" xmlns="http://www.w3.org/2000/svg">
<path fill-rule="evenodd" clip-rule="evenodd" d="M10.2547 2.34138C10.5225 2.25437 10.8109 2.25437 11.0787 2.34138C11.2719 2.40415 11.4198 2.51056 11.5364 2.60951C11.6424 2.69953 11.7581 2.8153 11.877 2.93416L13.0655 4.12269C13.1845 4.24165 13.3004 4.35751 13.3905 4.46367C13.4895 4.58022 13.5959 4.72816 13.6586 4.92132C13.7456 5.18911 13.7456 5.47752 13.6586 5.74531C13.5959 5.93846 13.4895 6.08639 13.3905 6.20296C13.3004 6.30912 13.1845 6.42499 13.0655 6.54397L11.1408 8.46868C11.1399 8.46959 11.139 8.4705 11.1381 8.4714C11.1372 8.4723 11.1363 8.47321 11.1354 8.4741L6.94279 12.6667H13.3333C13.7015 12.6667 14 12.9651 14 13.3333C14 13.7015 13.7015 14 13.3333 14H2.66667C2.29848 14 2 13.7015 2 13.3333V10.6667C2 10.4899 2.07024 10.3203 2.19526 10.1953L9.44101 2.94949L9.45598 2.93452C9.57497 2.8155 9.69085 2.69959 9.79703 2.60946C9.9136 2.51051 10.0615 2.40413 10.2547 2.34138ZM8 6.27613L3.33333 10.9428V12.6667L5.05719 12.6666L9.72385 7.99999L8 6.27613ZM10.6667 7.05718L8.9428 5.33332L10.3838 3.8923C10.5236 3.75252 10.6005 3.6764 10.6599 3.62594C10.6623 3.62392 10.6645 3.62203 10.6667 3.62025C10.6688 3.62201 10.671 3.62389 10.6734 3.62589C10.7328 3.67637 10.8097 3.75249 10.9495 3.8923L12.1077 5.05047C12.2474 5.19025 12.3236 5.26712 12.3741 5.32658C12.3761 5.32894 12.378 5.33119 12.3797 5.33332C12.378 5.33545 12.3761 5.3377 12.3741 5.34006C12.3236 5.39952 12.2475 5.47638 12.1077 5.61616L10.6667 7.05718Z" fill="#488488" fill-opacity="0.8"/>
</svg>
