<svg width="28" height="28" viewBox="0 0 28 28" fill="none" xmlns="http://www.w3.org/2000/svg">
<path d="M22.396 16.5623L23.1031 15.8552V15.8552L22.396 16.5623ZM22.8504 17.0168L22.1433 17.7239V17.7239L22.8504 17.0168ZM23.2727 19.0396L24.2202 19.3592L23.2727 19.0396ZM22.5401 19.7721L22.8597 20.7196L22.5401 19.7721ZM23.1148 17.3028L23.9271 16.7195L23.1148 17.3028ZM23.3183 17.7943L22.3315 17.9563L23.3183 17.7943ZM14.0003 3.49996L14.0003 2.49996L14.0003 3.49996ZM4.68239 17.7943L5.66919 17.9563L4.68239 17.7943ZM4.88574 17.3028L4.07346 16.7195L4.88574 17.3028ZM4.72819 19.0395L5.67573 18.7199L4.72819 19.0395ZM5.46053 19.7721L5.78014 18.8245L5.46053 19.7721ZM17.5003 19.8333H18.5003C18.5003 19.281 18.0526 18.8333 17.5003 18.8333V19.8333ZM10.5003 19.8333V18.8333C9.94804 18.8333 9.50033 19.281 9.50033 19.8333H10.5003ZM21.6238 1.55061C21.1827 1.21823 20.5557 1.30635 20.2233 1.74743C19.891 2.1885 19.9791 2.81551 20.4202 3.14788L21.6238 1.55061ZM23.7843 7.41675C24.0043 7.9233 24.5933 8.15557 25.0999 7.93552C25.6064 7.71547 25.8387 7.12645 25.6187 6.61989L23.7843 7.41675ZM7.5811 3.14788C8.02217 2.81551 8.11029 2.1885 7.77792 1.74743C7.44555 1.30635 6.81854 1.21823 6.37747 1.55061L7.5811 3.14788ZM2.38261 6.61989C2.16256 7.12645 2.39482 7.71547 2.90138 7.93552C3.40793 8.15557 3.99696 7.9233 4.217 7.41675L2.38261 6.61989ZM5.85717 17.7238L6.31159 17.2694L4.89738 15.8552L4.44296 16.3096L5.85717 17.7238ZM6.83366 16.0095V11.6666H4.83366V16.0095H6.83366ZM21.167 11.6666V16.0094H23.167V11.6666H21.167ZM21.6889 17.2694L22.1433 17.7239L23.5576 16.3097L23.1031 15.8552L21.6889 17.2694ZM21.6836 18.8333H6.31673V20.8333H21.6836V18.8333ZM22.3339 18.1834C22.3339 18.4196 22.3335 18.5553 22.3279 18.6556C22.3226 18.7489 22.315 18.75 22.3252 18.7199L24.2202 19.3592C24.3471 18.9831 24.3339 18.5525 24.3339 18.1834H22.3339ZM21.6836 20.8333C22.0527 20.8333 22.4836 20.8465 22.8597 20.7196L22.2204 18.8245C22.2506 18.8143 22.2494 18.8219 22.1559 18.8272C22.0555 18.8329 21.9197 18.8333 21.6836 18.8333V20.8333ZM22.3252 18.7199C22.3086 18.7691 22.27 18.8078 22.2204 18.8245L22.8597 20.7196C23.5005 20.5034 24.004 20.0004 24.2202 19.3592L22.3252 18.7199ZM22.1433 17.7239C22.2174 17.7979 22.2566 17.8373 22.2853 17.8678C22.3096 17.8937 22.3093 17.8954 22.3025 17.886L23.9271 16.7195C23.8129 16.5605 23.673 16.4251 23.5576 16.3097L22.1433 17.7239ZM24.3339 18.1834C24.3339 18.0172 24.3367 17.8249 24.3051 17.6324L22.3315 17.9563C22.3298 17.946 22.3313 17.9476 22.3324 17.9827C22.3337 18.0239 22.3339 18.0796 22.3339 18.1834H24.3339ZM22.3025 17.886C22.3172 17.9064 22.3272 17.9304 22.3315 17.9563L24.3051 17.6324C24.2511 17.3036 24.1221 16.9911 23.9271 16.7195L22.3025 17.886ZM21.167 16.0094C21.167 16.482 21.3547 16.9352 21.6889 17.2694L23.1031 15.8552C23.144 15.8961 23.167 15.9516 23.167 16.0094H21.167ZM14.0003 4.49996C17.9584 4.49995 21.167 7.70858 21.167 11.6666H23.167C23.167 6.60401 19.0629 2.49995 14.0003 2.49996L14.0003 4.49996ZM6.83366 11.6666C6.83366 7.7086 10.0423 4.49997 14.0003 4.49996L14.0003 2.49996C8.93773 2.49997 4.83366 6.60402 4.83366 11.6666H6.83366ZM6.31159 17.2694C6.64533 16.9357 6.83366 16.4826 6.83366 16.0095H4.83366C4.83366 15.951 4.85689 15.8957 4.89738 15.8552L6.31159 17.2694ZM5.66699 18.1834C5.66699 18.079 5.66711 18.0234 5.66842 17.9818C5.66954 17.9465 5.671 17.9453 5.66919 17.9563L3.69559 17.6324C3.66392 17.8254 3.66699 18.0192 3.66699 18.1834H5.66699ZM4.44296 16.3096C4.32704 16.4255 4.18757 16.5606 4.07346 16.7195L5.69803 17.886C5.69145 17.8952 5.69121 17.8934 5.71549 17.8675C5.744 17.8371 5.78328 17.7977 5.85717 17.7238L4.44296 16.3096ZM5.66919 17.9563C5.6735 17.93 5.68359 17.9061 5.69803 17.886L4.07346 16.7195C3.87826 16.9914 3.74949 17.304 3.69559 17.6324L5.66919 17.9563ZM3.66699 18.1834C3.66699 18.5525 3.65377 18.983 3.78064 19.3592L5.67573 18.7199C5.68588 18.75 5.67832 18.7489 5.67304 18.6556C5.66736 18.5553 5.66699 18.4196 5.66699 18.1834H3.66699ZM6.31673 18.8333C6.08059 18.8333 5.94488 18.8329 5.84458 18.8272C5.75126 18.8219 5.75009 18.8144 5.78014 18.8245L5.14092 20.7196C5.517 20.8465 5.9475 20.8333 6.31673 20.8333V18.8333ZM3.78064 19.3592C3.99679 20 4.49964 20.5033 5.14092 20.7196L5.78014 18.8245C5.73107 18.808 5.69245 18.7695 5.67573 18.7199L3.78064 19.3592ZM16.5003 19.8333V21H18.5003V19.8333H16.5003ZM11.5003 21V19.8333H9.50033V21H11.5003ZM10.5003 20.8333H17.5003V18.8333H10.5003V20.8333ZM14.0003 23.5C12.6196 23.5 11.5003 22.3807 11.5003 21H9.50033C9.50033 23.4852 11.515 25.5 14.0003 25.5V23.5ZM16.5003 21C16.5003 22.3807 15.381 23.5 14.0003 23.5V25.5C16.4856 25.5 18.5003 23.4852 18.5003 21H16.5003ZM20.4202 3.14788C21.8913 4.25648 23.0503 5.72718 23.7843 7.41675L25.6187 6.61989C24.7471 4.61353 23.3708 2.86707 21.6238 1.55061L20.4202 3.14788ZM6.37747 1.55061C4.63046 2.86707 3.25416 4.61353 2.38261 6.61989L4.217 7.41675C4.95095 5.72718 6.10994 4.25648 7.5811 3.14788L6.37747 1.55061Z" fill="#488488"/>
</svg>
