<svg width="16" height="16" viewBox="0 0 16 16" fill="none" xmlns="http://www.w3.org/2000/svg">
<path fill-rule="evenodd" clip-rule="evenodd" d="M8.69369 1.33386C8.68467 1.3335 8.67561 1.33332 8.66651 1.33332C8.66137 1.33332 8.65625 1.33338 8.65114 1.33349C8.60346 1.33319 8.55486 1.33324 8.50519 1.33329C8.48682 1.3333 8.46831 1.33332 8.44965 1.33332L5.44096 1.33332C5.08951 1.33331 4.78627 1.3333 4.53649 1.3537C4.27292 1.37523 4.01067 1.42276 3.75838 1.55131C3.38188 1.74314 3.07615 2.0492 2.88449 2.42535C2.75596 2.67761 2.70842 2.93975 2.68688 3.20331C2.66648 3.45303 2.66649 3.7562 2.6665 4.10763V11.8924C2.66649 12.2438 2.66648 12.547 2.68688 12.7967C2.70842 13.0602 2.75596 13.3224 2.88449 13.5746C3.07617 13.9508 3.38191 14.2568 3.75838 14.4486C4.01066 14.5772 4.2729 14.6247 4.53648 14.6463C4.78633 14.6667 5.08965 14.6667 5.44123 14.6667H10.5588C10.9103 14.6667 11.2135 14.6667 11.4632 14.6463C11.7268 14.6247 11.9888 14.5772 12.241 14.4486C12.617 14.2571 12.9234 13.9512 13.1153 13.5746C13.2439 13.3223 13.2914 13.0601 13.3129 12.7966C13.3332 12.5473 13.3332 12.2447 13.3332 11.8941L13.3332 6.21699C13.3332 6.1995 13.3332 6.18215 13.3332 6.16494C13.3332 6.11579 13.3333 6.06773 13.333 6.02061C13.3332 6.01376 13.3333 6.00689 13.3333 5.99999C13.3333 5.9889 13.333 5.97788 13.3325 5.96693C13.33 5.77277 13.3197 5.59389 13.2776 5.4187C13.2287 5.21492 13.1481 5.01981 13.0383 4.84061C12.9131 4.6363 12.7437 4.46721 12.5504 4.2742C12.5381 4.26193 12.5257 4.24956 12.5132 4.23708L10.4296 2.15342C10.4164 2.14027 10.4034 2.12722 10.3905 2.11427C10.1987 1.92219 10.0298 1.7529 9.82604 1.62805C9.64717 1.51844 9.45213 1.43759 9.24797 1.38858C9.07094 1.34608 8.88988 1.3361 8.69369 1.33386ZM11.7226 5.33332C11.6825 5.29233 11.6327 5.24217 11.5704 5.17988L9.48677 3.09623C9.42439 3.03385 9.37419 2.98402 9.33317 2.94386V3.86665C9.33317 4.25102 9.33369 4.4992 9.34912 4.68809C9.36392 4.8692 9.38904 4.93634 9.40583 4.9693C9.46982 5.09489 9.57173 5.19679 9.69703 5.26064C9.72996 5.27742 9.79716 5.30255 9.97839 5.31736C10.1674 5.3328 10.4156 5.33332 10.8 5.33332H11.7226ZM11.9998 6.66665V11.8667C11.9998 12.2511 11.9994 12.4993 11.9839 12.6882C11.9692 12.8693 11.9441 12.9364 11.9273 12.9693C11.8636 13.0944 11.7614 13.1966 11.6357 13.2606C11.6027 13.2775 11.5356 13.3026 11.3546 13.3174C11.1658 13.3328 10.9177 13.3333 10.5333 13.3333H5.46664C5.08228 13.3333 4.83402 13.3328 4.64505 13.3174C4.46382 13.3026 4.39663 13.2774 4.3637 13.2606C4.2384 13.1968 4.13649 13.0949 4.0725 12.9693C4.0557 12.9363 4.03059 12.8692 4.01579 12.6881C4.00036 12.4992 3.99984 12.251 3.99984 11.8667V4.13333C3.99984 3.74896 4.00036 3.50078 4.01579 3.31189C4.03059 3.13078 4.05571 3.06364 4.0725 3.03067C4.1365 2.90506 4.23843 2.80314 4.3637 2.73932C4.39662 2.72254 4.4638 2.69741 4.64504 2.68261C4.83401 2.66717 5.08227 2.66665 5.46664 2.66665H7.99984L7.99984 3.89235C7.99983 4.24378 7.99982 4.54695 8.02022 4.79667C8.04175 5.06023 8.0893 5.32237 8.21783 5.57463C8.4095 5.95081 8.71524 6.25682 9.09171 6.44865C9.34399 6.57719 9.60623 6.62473 9.86981 6.64626C10.1197 6.66668 10.423 6.66667 10.7745 6.66665L11.9998 6.66665Z" fill="white" fill-opacity="0.8"/>
</svg>
