<svg width="16" height="16" viewBox="0 0 16 16" fill="none" xmlns="http://www.w3.org/2000/svg">
<path fill-rule="evenodd" clip-rule="evenodd" d="M5.33334 0.666656C5.70153 0.666656 6 0.965133 6 1.33332V1.99999H10V1.33332C10 0.965133 10.2985 0.666656 10.6667 0.666656C11.0349 0.666656 11.3333 0.965133 11.3333 1.33332V2.00001C11.6394 2.00019 11.9062 2.00208 12.13 2.02037C12.3936 2.04191 12.6556 2.08947 12.9079 2.21798C13.2839 2.40958 13.5903 2.71543 13.7822 3.09202C13.9107 3.34435 13.9582 3.60654 13.9797 3.87007C14 4.11931 14 4.42187 14 4.77249V4.77252V4.79996V5.33332V11.2V11.2273C14 11.578 14 11.8806 13.9797 12.1299C13.9582 12.3934 13.9107 12.6557 13.7822 12.908C13.5902 13.2847 13.2838 13.5904 12.9079 13.782C12.6556 13.9105 12.3936 13.9581 12.1301 13.9796C11.8804 14 11.5772 14 11.2257 14H11.2257H11.2256H11.2001H4.80013H4.77473H4.77464H4.77463C4.4231 14 4.1198 14 3.86998 13.9796C3.60639 13.9581 3.34415 13.9105 3.09187 13.782C2.71545 13.5902 2.40968 13.2842 2.21799 12.908C2.08946 12.6557 2.04191 12.3936 2.02038 12.13C1.99998 11.8803 1.99999 11.5771 2 11.2257V11.2257V11.2257V11.2V5.33332V4.79996V4.77426V4.77423V4.7742C1.99999 4.4228 1.99998 4.11965 2.02038 3.86996C2.04192 3.6064 2.08946 3.34427 2.21799 3.09202C2.40965 2.71587 2.71538 2.40981 3.09187 2.21798C3.34417 2.08943 3.60641 2.0419 3.86999 2.02037C4.09386 2.00208 4.36068 2.00019 4.66667 2.00001V1.33332C4.66667 0.965133 4.96515 0.666656 5.33334 0.666656ZM4.66667 5.33332C4.29848 5.33332 4 5.6318 4 5.99999C4 6.36818 4.29848 6.66666 4.66667 6.66666H11.3333C11.7015 6.66666 12 6.36818 12 5.99999C12 5.6318 11.7015 5.33332 11.3333 5.33332H4.66667Z" fill="#CECBCB"/>
</svg>
