<svg width="16" height="16" viewBox="0 0 16 16" fill="none" xmlns="http://www.w3.org/2000/svg">
<path fill-rule="evenodd" clip-rule="evenodd" d="M5.33334 0.666687C5.70153 0.666687 6 0.965164 6 1.33335V2.00002H10V1.33335C10 0.965164 10.2985 0.666687 10.6667 0.666687C11.0349 0.666687 11.3333 0.965164 11.3333 1.33335V2.00004C11.6394 2.00022 11.9062 2.00211 12.13 2.0204C12.3936 2.04194 12.6556 2.0895 12.9079 2.21801C13.2839 2.40961 13.5903 2.71546 13.7822 3.09205C13.9107 3.34438 13.9582 3.60657 13.9797 3.8701C14 4.11934 14 4.42191 14 4.77252V4.77255V4.79999V5.33335V11.2V11.2274C14 11.578 14 11.8806 13.9797 12.1299C13.9582 12.3935 13.9107 12.6557 13.7822 12.908C13.5902 13.2847 13.2838 13.5904 12.9079 13.782C12.6556 13.9105 12.3936 13.9581 12.1301 13.9796C11.8804 14 11.5772 14 11.2257 14H11.2257H11.2256H11.2001H4.80013H4.77473H4.77464H4.77463C4.4231 14 4.1198 14 3.86998 13.9796C3.60639 13.9581 3.34415 13.9106 3.09187 13.782C2.71545 13.5902 2.40968 13.2843 2.21799 12.908C2.08946 12.6558 2.04191 12.3936 2.02038 12.13C1.99998 11.8803 1.99999 11.5771 2 11.2257V11.2257V11.2257V11.2V5.33335V4.79999V4.77429V4.77426V4.77424C1.99999 4.42283 1.99998 4.11968 2.02038 3.86999C2.04192 3.60643 2.08946 3.3443 2.21799 3.09205C2.40965 2.7159 2.71538 2.40984 3.09187 2.21801C3.34417 2.08946 3.60641 2.04193 3.86999 2.0204C4.09386 2.00211 4.36068 2.00023 4.66667 2.00004V1.33335C4.66667 0.965164 4.96515 0.666687 5.33334 0.666687ZM4.66667 5.33335C4.29848 5.33335 4 5.63183 4 6.00002C4 6.36821 4.29848 6.66669 4.66667 6.66669H11.3333C11.7015 6.66669 12 6.36821 12 6.00002C12 5.63183 11.7015 5.33335 11.3333 5.33335H4.66667Z" fill="#ECEAE9"/>
</svg>
