<svg width="16" height="16" viewBox="0 0 16 16" fill="none" xmlns="http://www.w3.org/2000/svg">
<path fill-rule="evenodd" clip-rule="evenodd" d="M7.41513 13.5503C6.16266 12.5248 3.33301 9.84994 3.33301 6.6154C3.33301 5.39132 3.82467 4.21736 4.69984 3.35181C5.57501 2.48625 6.76202 2 7.9997 2C9.23738 2 10.4243 2.48626 11.2995 3.35181C12.1747 4.21737 12.6663 5.3913 12.6663 6.61538C12.6663 9.84992 9.83679 12.5248 8.58431 13.5503C8.40438 13.6976 8.31432 13.7713 8.18034 13.809C8.0762 13.8383 7.92304 13.8383 7.81891 13.809C7.68505 13.7713 7.59522 13.6978 7.41562 13.5507L7.41513 13.5503ZM7.99967 8.66667C9.10424 8.66667 9.99967 7.77124 9.99967 6.66667C9.99967 5.5621 9.10424 4.66667 7.99967 4.66667C6.8951 4.66667 5.99967 5.5621 5.99967 6.66667C5.99967 7.77124 6.8951 8.66667 7.99967 8.66667Z" fill="#CECBCB"/>
</svg>
