<svg width="16" height="16" viewBox="0 0 16 16" fill="none" xmlns="http://www.w3.org/2000/svg">
<path fill-rule="evenodd" clip-rule="evenodd" d="M3.3506 5.38586C4.26432 3.7639 6.00327 2.66663 8 2.66663C10.4992 2.66663 12.5964 4.38513 13.1752 6.70518C14.7748 6.95006 16 8.33193 16 9.99996C16 11.8409 14.5076 13.3333 12.6667 13.3333H4C1.79086 13.3333 0 11.5424 0 9.33328C0 7.34523 1.45022 5.69645 3.3506 5.38586ZM8 3.99996C6.40297 3.99996 5.02342 4.93588 4.38196 6.2922C4.27845 6.51106 4.06443 6.6566 3.82284 6.67241C2.43306 6.76338 1.33333 7.92027 1.33333 9.33328C1.33333 10.806 2.52724 12 4 12H12.6667C13.7712 12 14.6667 11.1045 14.6667 9.99996C14.6667 8.89539 13.7712 7.99996 12.6667 7.99996C12.6549 7.99996 12.6434 8.00006 12.6314 8.00027C12.2953 8.0061 12.0074 7.76081 11.9598 7.42804C11.6828 5.4901 10.0147 3.99996 8 3.99996ZM7.33333 7.9123L6.3698 8.55466C6.06345 8.75889 5.64953 8.67611 5.4453 8.36976C5.24107 8.06341 5.32385 7.64949 5.6302 7.44526L7.6302 6.11193C7.85413 5.96264 8.14587 5.96264 8.3698 6.11193L10.3698 7.44526C10.6762 7.64949 10.7589 8.06341 10.5547 8.36976C10.3505 8.67611 9.93655 8.75889 9.6302 8.55466L8.66667 7.9123L8.66667 10.6666C8.66667 11.0348 8.36819 11.3333 8 11.3333C7.63181 11.3333 7.33333 11.0348 7.33333 10.6666L7.33333 7.9123Z" fill="white" fill-opacity="0.8"/>
</svg>
