<svg width="10" height="10" viewBox="0 0 10 10" fill="none" xmlns="http://www.w3.org/2000/svg">
<path fill-rule="evenodd" clip-rule="evenodd" d="M2.98403 1.25H7.01615C7.23579 1.24999 7.42524 1.24999 7.58127 1.26274C7.74599 1.2762 7.90977 1.30592 8.06741 1.38624C8.30244 1.506 8.49392 1.69715 8.61385 1.93252C8.69418 2.09018 8.72389 2.25402 8.73735 2.41875C8.7501 2.57482 8.7501 2.7643 8.75009 2.98394V7.01607C8.7501 7.2357 8.7501 7.42519 8.73735 7.58126C8.72389 7.74598 8.69418 7.90983 8.61385 8.06748C8.49391 8.30287 8.30242 8.494 8.06741 8.61375C7.90978 8.69406 7.746 8.72379 7.58128 8.73726C7.42521 8.75001 7.23571 8.75001 7.016 8.75H2.9842C2.76447 8.75001 2.57489 8.75001 2.41873 8.73726C2.25399 8.7238 2.0901 8.69409 1.93242 8.61375C1.69713 8.49386 1.50604 8.3026 1.38624 8.06748C1.30591 7.90983 1.2762 7.74599 1.26274 7.58126C1.24999 7.42519 1.24999 7.23571 1.25 7.01607V2.98395C1.24999 2.7643 1.24999 2.57482 1.26274 2.41875C1.2762 2.25402 1.30591 2.09018 1.38624 1.93252C1.50603 1.69743 1.69711 1.50614 1.93242 1.38624C2.0901 1.3059 2.25401 1.27619 2.41874 1.26274C2.57485 1.24999 2.76438 1.24999 2.98403 1.25ZM2.48658 2.0933C2.37331 2.10256 2.33132 2.11826 2.31075 2.12875C2.23245 2.16864 2.16875 2.23234 2.12875 2.31085C2.11825 2.33145 2.10255 2.37342 2.0933 2.48661C2.08366 2.60466 2.08333 2.75978 2.08333 3.00001V7.00001C2.08333 7.24024 2.08366 7.39535 2.0933 7.5134C2.10255 7.62659 2.11825 7.66856 2.12875 7.68916C2.16874 7.76765 2.23243 7.83134 2.31075 7.87124C2.33133 7.88173 2.37333 7.89744 2.48659 7.90669C2.6047 7.91634 2.75986 7.91667 3.00008 7.91667H7.00008C7.24031 7.91667 7.39538 7.91634 7.51338 7.90669C7.6265 7.89745 7.66845 7.88175 7.68908 7.87124C7.76767 7.8312 7.83149 7.76737 7.87134 7.68916C7.88184 7.66856 7.89754 7.62659 7.90679 7.5134C7.91643 7.39534 7.91676 7.24022 7.91676 7V3.00001C7.91676 2.75978 7.91643 2.60467 7.90679 2.48661C7.89754 2.37342 7.88184 2.33145 7.87134 2.31085C7.83148 2.23262 7.76765 2.16878 7.68908 2.12875C7.66846 2.11824 7.62651 2.10255 7.51339 2.0933C7.39538 2.08366 7.24032 2.08333 7.00008 2.08333H3.00008C2.75986 2.08333 2.60469 2.08366 2.48658 2.0933ZM5 2.91667C5.23012 2.91667 5.41667 3.10322 5.41667 3.33333V4.58333H6.66667C6.89679 4.58333 7.08333 4.76988 7.08333 5C7.08333 5.23012 6.89679 5.41667 6.66667 5.41667H5.41667V6.66667C5.41667 6.89679 5.23012 7.08333 5 7.08333C4.76988 7.08333 4.58333 6.89679 4.58333 6.66667V5.41667H3.33333C3.10322 5.41667 2.91667 5.23012 2.91667 5C2.91667 4.76988 3.10322 4.58333 3.33333 4.58333H4.58333V3.33333C4.58333 3.10322 4.76988 2.91667 5 2.91667Z" fill="#68A5A1"/>
</svg>
