<svg width="111" height="123" viewBox="0 0 111 123" fill="none" xmlns="http://www.w3.org/2000/svg">
<path fill-rule="evenodd" clip-rule="evenodd" d="M25.6637 5.30384e-06H85.339C88.5897 -0.000104965 91.3935 -0.000200528 93.7028 0.188535C96.1407 0.387772 98.5646 0.827667 100.898 2.01639C104.376 3.78876 107.21 6.6178 108.985 10.1013C110.174 12.4353 110.613 14.8606 110.812 17.2982C111 19.6038 111 22.4026 111 25.6459V50.3496C111 94.632 77.3627 114.349 63.7519 120.51L63.6994 120.534C62.2257 121.201 60.9624 121.773 58.6331 122.173C57.6145 122.348 56.3963 122.388 55.5023 122.388C54.6082 122.388 53.3901 122.348 52.3715 122.173C50.0326 121.771 48.7659 121.198 47.2715 120.521L47.2465 120.51C33.6354 114.349 1.1185e-05 94.6318 1.1185e-05 50.3496L5.30398e-06 25.662C-0.000104965 22.4113 -0.000200528 19.607 0.188525 17.2972C0.387723 14.8593 0.827525 12.4346 2.01639 10.1013C3.78924 6.62192 6.61723 3.79086 10.0998 2.01639C12.4335 0.827309 14.8593 0.387649 17.2974 0.18851C19.6078 -0.000199793 22.4128 -0.000104965 25.6637 5.30384e-06ZM18.3014 12.4809C16.625 12.6178 16.0036 12.8503 15.699 13.0055C14.5403 13.5959 13.5975 14.5386 13.0055 15.7005C12.8501 16.0055 12.6178 16.6265 12.4809 18.3016C12.3381 20.0487 12.3333 22.3443 12.3333 25.8997V50.3496C12.3333 87.0759 39.9674 103.677 52.3323 109.274C53.0789 109.612 53.3397 109.725 53.5766 109.808C53.7287 109.862 53.9423 109.928 54.429 110.012C54.4359 110.013 54.522 110.023 54.7037 110.034C54.9276 110.047 55.2052 110.055 55.5023 110.055C55.7993 110.055 56.0769 110.047 56.3009 110.034C56.4792 110.023 56.5654 110.013 56.575 110.012C56.5791 110.012 56.5692 110.013 56.5463 110.017C57.0519 109.93 57.2677 109.864 57.4196 109.81C57.6562 109.727 57.9139 109.615 58.6661 109.274C71.0312 103.677 98.6667 87.0758 98.6667 50.3496V25.8997C98.6667 22.3437 98.6622 20.0482 98.5197 18.3006C98.3831 16.6252 98.1509 16.0048 97.9959 15.7005C97.4059 14.5427 96.4613 13.598 95.2984 13.0055C94.9932 12.8499 94.3724 12.6177 92.6982 12.4809C90.9517 12.3381 88.6567 12.3333 85.1012 12.3333H25.9012C22.3459 12.3333 20.0494 12.3381 18.3014 12.4809ZM78.3605 38.8062C80.7687 41.2144 80.7687 45.1189 78.3605 47.5272L53.6938 72.1938C51.2856 74.6021 47.3811 74.6021 44.9729 72.1938L32.6395 59.8605C30.2313 57.4523 30.2313 53.5478 32.6395 51.1395C35.0478 48.7313 38.9523 48.7313 41.3605 51.1395L49.3333 59.1124L69.6395 38.8062C72.0478 36.398 75.9523 36.398 78.3605 38.8062Z" fill="#488488"/>
</svg>
