<svg width="14" height="14" viewBox="0 0 14 14" fill="none" xmlns="http://www.w3.org/2000/svg">
<path fill-rule="evenodd" clip-rule="evenodd" d="M1.7501 2.33334C2.07226 2.33334 2.33343 2.59451 2.33343 2.91668V7.50456L3.63848 6.41702C3.83029 6.25717 3.99661 6.11855 4.14291 6.01292C4.29766 5.90118 4.46212 5.80201 4.6571 5.74114C5.0486 5.61893 5.47037 5.63818 5.84902 5.79527C6.03771 5.87354 6.19251 5.9872 6.33649 6.11249C6.47251 6.23085 6.62548 6.38383 6.80187 6.56023L6.8151 6.57346C7.01276 6.77113 7.13998 6.89789 7.24414 6.98839C7.34376 7.07496 7.39079 7.09973 7.41637 7.11015C7.54507 7.16258 7.68832 7.16735 7.82018 7.12361C7.84643 7.11491 7.89506 7.09329 8.00026 7.01353C8.11022 6.93015 8.24564 6.81212 8.45597 6.62807L11.8659 3.64434C12.1084 3.43219 12.4769 3.45676 12.6891 3.69922C12.9012 3.94167 12.8767 4.3102 12.6342 4.52235L9.21014 7.51841C9.01806 7.68649 8.8517 7.83206 8.70511 7.9432C8.55019 8.06066 8.38488 8.16547 8.18749 8.23095C7.79182 8.36219 7.36224 8.34786 6.97622 8.1906C6.7836 8.11213 6.62565 7.99655 6.47892 7.86905C6.34027 7.74858 6.18422 7.59251 6.00407 7.41234L5.99014 7.39842C5.79675 7.20503 5.67243 7.08117 5.57064 6.99259C5.47342 6.908 5.42734 6.88341 5.40198 6.87289C5.27565 6.82048 5.13513 6.81411 5.00475 6.85481C4.97852 6.86299 4.93039 6.88332 4.82589 6.95878C4.71648 7.03778 4.58144 7.14987 4.37135 7.32495L2.33343 9.02322V9.80001C2.33343 10.1363 2.33388 10.3535 2.34739 10.5188C2.36034 10.6773 2.38231 10.736 2.39701 10.7649C2.45298 10.8747 2.54213 10.9639 2.65181 11.0197C2.68062 11.0344 2.73942 11.0564 2.89799 11.0694C3.06334 11.0829 3.28057 11.0833 3.61688 11.0833H12.2502C12.5724 11.0833 12.8335 11.3445 12.8335 11.6667C12.8335 11.9888 12.5724 12.25 12.2502 12.25H3.59465C3.28702 12.25 3.02161 12.25 2.80299 12.2322C2.57235 12.2133 2.3429 12.1717 2.12215 12.0593C1.79278 11.8914 1.52523 11.6237 1.3575 11.2945C1.24504 11.0738 1.20344 10.8444 1.18459 10.6138C1.16674 10.3953 1.16675 10.13 1.16676 9.82249L1.16676 8.75446C1.16674 8.75169 1.16674 8.74893 1.16676 8.74617V2.91668C1.16676 2.59451 1.42793 2.33334 1.7501 2.33334Z" fill="#C73030" fill-opacity="0.8"/>
</svg>
