<svg width="14" height="14" viewBox="0 0 14 14" fill="none" xmlns="http://www.w3.org/2000/svg">
<path fill-rule="evenodd" clip-rule="evenodd" d="M7.23709 2.96707C7.08606 2.89983 6.91347 2.89983 6.76244 2.96707C6.73613 2.97878 6.65827 3.02578 6.49971 3.25024C6.34292 3.47221 6.1594 3.78895 5.88838 4.25836L3.05937 9.15836C2.78837 9.62774 2.60586 9.94504 2.49208 10.1918C2.37703 10.4413 2.37525 10.5322 2.37827 10.5609C2.39554 10.7253 2.48181 10.8747 2.61565 10.9719C2.63898 10.9889 2.71864 11.0328 2.99225 11.0579C3.26284 11.0828 3.62888 11.0833 4.17088 11.0833H9.82891C10.3709 11.0833 10.7369 11.0828 11.0075 11.0579C11.2811 11.0328 11.3607 10.9889 11.3841 10.9719C11.5179 10.8747 11.6042 10.7253 11.6215 10.5609C11.6245 10.5322 11.6227 10.4413 11.5076 10.1918C11.3939 9.94504 11.2114 9.62774 10.9404 9.15836L8.11134 4.25836C7.84035 3.789 7.65678 3.47225 7.49995 3.2503C7.34136 3.02586 7.26344 2.9788 7.23709 2.96707ZM6.28791 1.90126C6.741 1.69954 7.25853 1.69954 7.71161 1.90126C8.03156 2.04371 8.25947 2.3035 8.45277 2.57706C8.64435 2.8482 8.85457 3.21232 9.10789 3.65111L11.9647 8.59928C12.218 9.0379 12.4281 9.40186 12.5671 9.70323C12.7073 10.0074 12.8183 10.3346 12.7817 10.6829C12.7299 11.1763 12.471 11.6243 12.0698 11.9158C11.7865 12.1216 11.4476 12.1891 11.1141 12.2197C10.7838 12.25 10.3637 12.25 9.85745 12.25H4.14234C3.63611 12.25 3.21602 12.25 2.88566 12.2197C2.55213 12.1891 2.21324 12.1216 1.9299 11.9158C1.52874 11.6243 1.26985 11.1763 1.21799 10.6829C1.18138 10.3346 1.29238 10.0074 1.43263 9.70323C1.5716 9.40187 1.78174 9.03792 2.03498 8.59931L4.89282 3.64939C5.14568 3.21141 5.35555 2.84789 5.54681 2.57712C5.74005 2.30357 5.96792 2.04374 6.28791 1.90126ZM6.99982 4.66667C7.32199 4.66667 7.58316 4.92784 7.58316 5.25V7.58334C7.58316 7.9055 7.32199 8.16667 6.99982 8.16667C6.67766 8.16667 6.41649 7.9055 6.41649 7.58334V5.25C6.41649 4.92784 6.67766 4.66667 6.99982 4.66667ZM6.38744 9.33334C6.38744 9.01117 6.6486 8.75 6.97077 8.75H7.02887C7.35104 8.75 7.61221 9.01117 7.61221 9.33334V9.39167C7.61221 9.5464 7.55073 9.6948 7.4413 9.8042C7.33187 9.9136 7.18346 9.97504 7.02873 9.975L6.97062 9.97499C6.64851 9.97491 6.38744 9.71376 6.38744 9.39165V9.33334Z" fill="white" fill-opacity="0.8"/>
</svg>
