<svg width="16" height="16" viewBox="0 0 16 16" fill="none" xmlns="http://www.w3.org/2000/svg">
<g opacity="0.8">
<path fill-rule="evenodd" clip-rule="evenodd" d="M10.0001 3.33333C9.63189 3.33333 9.33342 3.03486 9.33342 2.66667C9.33342 2.29848 9.63189 2 10.0001 2H13.3334C13.7016 2 14.0001 2.29848 14.0001 2.66667V6C14.0001 6.36819 13.7016 6.66667 13.3334 6.66667C12.9652 6.66667 12.6667 6.36819 12.6667 6V4.27614L9.13815 7.80474C8.8778 8.06509 8.45569 8.06509 8.19534 7.80474C7.935 7.54439 7.935 7.12228 8.19534 6.86193L11.7239 3.33333H10.0001ZM5.4412 2.66667H6.66688C7.03507 2.66667 7.33355 2.96514 7.33355 3.33333C7.33355 3.70152 7.03507 4 6.66688 4H5.46688C5.08252 4 4.83425 4.00052 4.64528 4.01595C4.46405 4.03076 4.39686 4.05589 4.36394 4.07266C4.23867 4.13649 4.13675 4.23841 4.07275 4.36402C4.05595 4.39699 4.03083 4.46413 4.01603 4.64522C4.0006 4.8341 4.00008 5.08226 4.00008 5.46663V10.5333C4.00008 10.9177 4.0006 11.1659 4.01603 11.3548C4.03083 11.5359 4.05595 11.6031 4.07275 11.636C4.13671 11.7616 4.2386 11.8635 4.36394 11.9273C4.39688 11.9441 4.46407 11.9692 4.6453 11.984C4.83426 11.9995 5.08253 12 5.46688 12H10.5335C10.9179 12 11.166 11.9995 11.3548 11.984C11.5358 11.9692 11.6029 11.9441 11.6359 11.9273C11.7617 11.8632 11.8638 11.7611 11.9276 11.636C11.9443 11.6031 11.9694 11.5361 11.9842 11.3549C11.9996 11.166 12.0001 10.9178 12.0001 10.5333V9.33333C12.0001 8.96514 12.2986 8.66667 12.6667 8.66667C13.0349 8.66667 13.3334 8.96514 13.3334 9.33333L13.3334 10.5607C13.3334 10.9114 13.3334 11.214 13.3131 11.4633C13.2916 11.7268 13.2441 11.989 13.1156 12.2413C12.9236 12.618 12.6172 12.9238 12.2413 13.1153C11.9891 13.2438 11.727 13.2914 11.4635 13.3129C11.2137 13.3334 10.9105 13.3333 10.559 13.3333H5.44147C5.0899 13.3333 4.78657 13.3334 4.53672 13.3129C4.27314 13.2914 4.0109 13.2439 3.75862 13.1153C3.3822 12.9235 3.07643 12.6176 2.88474 12.2413C2.7562 11.9891 2.70866 11.7269 2.68713 11.4633C2.66673 11.2136 2.66674 10.9104 2.66675 10.559V5.44093C2.66674 5.0895 2.66673 4.78634 2.68713 4.53664C2.70866 4.27308 2.75621 4.01095 2.88474 3.7587C3.0764 3.38255 3.38212 3.07649 3.75862 2.88465C4.01091 2.7561 4.27316 2.70857 4.53674 2.68704C4.78651 2.66664 5.08975 2.66665 5.4412 2.66667Z" fill="white"/>
</g>
</svg>
