<svg width="16" height="16" viewBox="0 0 16 16" fill="none" xmlns="http://www.w3.org/2000/svg">
<path fill-rule="evenodd" clip-rule="evenodd" d="M7.41562 13.5503C6.16315 12.5248 3.3335 9.84994 3.3335 6.6154C3.3335 5.39132 3.82516 4.21736 4.70033 3.35181C5.5755 2.48625 6.76251 2 8.00019 2C9.23787 2 10.4248 2.48626 11.3 3.35181C12.1752 4.21737 12.6668 5.3913 12.6668 6.61538C12.6668 9.84992 9.83727 12.5248 8.5848 13.5503C8.40487 13.6976 8.31481 13.7713 8.18083 13.809C8.07669 13.8383 7.92353 13.8383 7.8194 13.809C7.68553 13.7713 7.59571 13.6978 7.41611 13.5507L7.41562 13.5503ZM8.00016 8.66667C9.10473 8.66667 10.0002 7.77124 10.0002 6.66667C10.0002 5.5621 9.10473 4.66667 8.00016 4.66667C6.89559 4.66667 6.00016 5.5621 6.00016 6.66667C6.00016 7.77124 6.89559 8.66667 8.00016 8.66667Z" fill="#ECEAE9"/>
</svg>
