<svg width="10" height="10" viewBox="0 0 10 10" fill="none" xmlns="http://www.w3.org/2000/svg">
<path fill-rule="evenodd" clip-rule="evenodd" d="M3.33333 0.416748C3.56345 0.416748 3.75 0.603296 3.75 0.833415V1.25008H6.25V0.833415C6.25 0.603296 6.43655 0.416748 6.66667 0.416748C6.89679 0.416748 7.08333 0.603296 7.08333 0.833415V1.25009C7.27462 1.25021 7.44138 1.25139 7.58127 1.26282C7.74599 1.27628 7.90977 1.306 8.06741 1.38632C8.30244 1.50608 8.49392 1.69723 8.61385 1.9326C8.6942 2.0903 8.72388 2.25418 8.73731 2.41888C8.75002 2.57466 8.75001 2.76377 8.75 2.98291V7.01717C8.75001 7.23633 8.75002 7.42547 8.73731 7.58127C8.72388 7.74598 8.69421 7.90988 8.61385 8.06759C8.4939 8.30301 8.30239 8.49409 8.06741 8.61383C7.90978 8.69414 7.746 8.72387 7.58128 8.73734C7.42521 8.7501 7.2357 8.75009 7.016 8.75008H2.9842C2.76447 8.75009 2.57489 8.7501 2.41873 8.73734C2.25399 8.72388 2.0901 8.69417 1.93242 8.61383C1.69715 8.49395 1.50605 8.30273 1.38624 8.06759C1.30591 7.90993 1.2762 7.74607 1.26274 7.58134C1.24999 7.42526 1.24999 7.23577 1.25 7.01612V2.984C1.24999 2.76436 1.24999 2.57488 1.26274 2.41881C1.2762 2.25409 1.30591 2.09026 1.38624 1.9326C1.50603 1.69751 1.69711 1.50622 1.93242 1.38632C2.0901 1.30598 2.25401 1.27627 2.41874 1.26282C2.55866 1.25139 2.72543 1.25021 2.91667 1.25009V0.833415C2.91667 0.603296 3.10322 0.416748 3.33333 0.416748ZM3.00008 2.08341C2.75986 2.08341 2.60469 2.08374 2.48658 2.09339C2.37331 2.10264 2.33132 2.11834 2.31075 2.12883C2.23245 2.16872 2.16875 2.23242 2.12875 2.31093C2.11825 2.33153 2.10255 2.3735 2.0933 2.48668C2.08482 2.59048 2.08355 2.72294 2.08336 2.91675H7.91664C7.91646 2.72291 7.9152 2.59044 7.90674 2.48661C7.89751 2.37341 7.88182 2.33149 7.87134 2.31093C7.83148 2.2327 7.76765 2.16886 7.68908 2.12883C7.66846 2.11832 7.62651 2.10263 7.51339 2.09338C7.39538 2.08374 7.24032 2.08341 7.00008 2.08341H3.00008ZM7.91667 3.75008H2.08333V7.00006C2.08333 7.24029 2.08366 7.39542 2.0933 7.51348C2.10255 7.6267 2.11825 7.66867 2.12875 7.68926C2.16873 7.76773 2.23241 7.83141 2.31075 7.87132C2.33133 7.88181 2.37333 7.89752 2.48659 7.90677C2.6047 7.91642 2.75986 7.91675 3.00008 7.91675H7.00008C7.24031 7.91675 7.39538 7.91642 7.51338 7.90677C7.6265 7.89753 7.66845 7.88183 7.68908 7.87132C7.7677 7.83126 7.8315 7.76745 7.87134 7.68926C7.88181 7.66872 7.8975 7.62678 7.90674 7.51355C7.91637 7.39546 7.91667 7.24033 7.91667 7.00006V3.75008ZM3.87204 4.70545C4.03476 4.54273 4.29858 4.54273 4.4613 4.70545L5 5.24416L5.53871 4.70545C5.70143 4.54273 5.96525 4.54273 6.12797 4.70545C6.29069 4.86817 6.29069 5.13199 6.12797 5.29471L5.58926 5.83342L6.12796 6.37212C6.29068 6.53483 6.29068 6.79865 6.12796 6.96137C5.96524 7.12409 5.70142 7.12409 5.5387 6.96137L5 6.42267L4.4613 6.96138C4.29858 7.1241 4.03476 7.1241 3.87204 6.96138C3.70932 6.79866 3.70932 6.53484 3.87204 6.37213L4.41075 5.83342L3.87204 5.29471C3.70932 5.13199 3.70932 4.86817 3.87204 4.70545Z" fill="#6D6E6F"/>
</svg>
