<svg width="14" height="14" viewBox="0 0 14 14" fill="none" xmlns="http://www.w3.org/2000/svg">
<path fill-rule="evenodd" clip-rule="evenodd" d="M7.00033 2.91663C7.32249 2.91663 7.58366 3.17779 7.58366 3.49996V6.41663H10.5003C10.8225 6.41663 11.0837 6.67779 11.0837 6.99996C11.0837 7.32213 10.8225 7.58329 10.5003 7.58329H7.58366V10.5C7.58366 10.8221 7.32249 11.0833 7.00033 11.0833C6.67816 11.0833 6.41699 10.8221 6.41699 10.5V7.58329H3.50033C3.17816 7.58329 2.91699 7.32213 2.91699 6.99996C2.91699 6.67779 3.17816 6.41663 3.50033 6.41663H6.41699V3.49996C6.41699 3.17779 6.67816 2.91663 7.00033 2.91663Z" fill="#488488" fill-opacity="0.8"/>
</svg>
