<svg width="24" height="24" viewBox="0 0 24 24" fill="none" xmlns="http://www.w3.org/2000/svg">
<path d="M19.984 8.71936L19.4979 9.59324L19.4979 9.59324L19.984 8.71936ZM20.3502 8.92309L20.8364 8.04921L20.8364 8.04921L20.3502 8.92309ZM21.9947 11.7123L22.9947 11.71V11.71L21.9947 11.7123ZM21.996 12.2744L20.996 12.2767V12.2767L21.996 12.2744ZM20.347 15.0806L20.8317 15.9552V15.9552L20.347 15.0806ZM19.9855 15.2809L19.5008 14.4063V14.4063L19.9855 15.2809ZM18.8346 17.2726L19.8344 17.2558L18.8346 17.2726ZM18.8417 17.6972L17.8419 17.7141L18.8417 17.6972ZM17.2485 20.5187L17.7505 21.3836H17.7505L17.2485 20.5187ZM16.7609 20.8017L16.2589 19.9368H16.2589L16.7609 20.8017ZM13.5076 20.7776L12.9928 21.635L12.9928 21.635L13.5076 20.7776ZM13.1515 20.5638L13.6662 19.7065L13.6662 19.7065L13.1515 20.5638ZM10.8495 20.5625L10.3358 19.7045L10.8495 20.5625ZM10.4957 20.7744L11.0094 21.6323L10.4957 20.7744ZM7.25408 20.8016L6.75479 21.668L7.25408 20.8016ZM6.76037 20.5171L7.25965 19.6507L6.76037 20.5171ZM5.15881 17.6905L6.15866 17.7074L5.15881 17.6905ZM5.16569 17.283L4.16583 17.2661L5.16569 17.283ZM4.00836 15.2761L3.52221 16.15H3.52221L4.00836 15.2761ZM3.65002 15.0768L4.13616 14.2029H4.13616L3.65002 15.0768ZM2.00579 12.2877L3.00578 12.2854L2.00579 12.2877ZM2.00451 11.7256L1.00451 11.7279L2.00451 11.7256ZM3.65344 8.91936L3.16872 8.04469L3.65344 8.91936ZM4.015 8.719L4.49972 9.59367L4.015 8.719ZM5.16546 6.7274L4.16561 6.74422L5.16546 6.7274ZM5.15832 6.30274L6.15818 6.28591V6.28591L5.15832 6.30274ZM6.75158 3.48128L6.24961 2.61639V2.61639L6.75158 3.48128ZM7.23924 3.19824L7.74121 4.06313L7.23924 3.19824ZM10.4928 3.22229L11.0075 2.36493V2.36493L10.4928 3.22229ZM10.8489 3.43606L10.3342 4.29342L10.8489 3.43606ZM13.1505 3.43745L12.6368 2.57949V2.57949L13.1505 3.43745ZM13.5043 3.22559L14.0181 4.08355V4.08354L13.5043 3.22559ZM16.7457 3.19837L16.2464 4.0648L16.7457 3.19837ZM17.2395 3.48293L17.7388 2.61649L17.7388 2.61649L17.2395 3.48293ZM18.8416 6.30933L17.8417 6.29251V6.29251L18.8416 6.30933ZM18.8346 6.72633L19.8344 6.74315V6.74315L18.8346 6.72633ZM18.8333 6.85647L19.8332 6.84119L18.8333 6.85647ZM19.1341 7.88326L20 7.38306L19.1341 7.88326ZM19.0699 7.77014L18.1884 8.24228L19.0699 7.77014ZM18.3461 4.23718L19.0923 3.57138V3.57138L18.3461 4.23718ZM18.7628 4.97278L19.7174 4.67475L18.7628 4.97278ZM14.6982 2.62781L14.9172 3.60353L14.6982 2.62781ZM15.5416 2.62085L15.3389 3.6001V3.6001L15.5416 2.62085ZM12.1305 3.75427L12.0985 2.75479L12.1305 3.75427ZM13.0382 3.50325L13.5241 4.37724L13.0382 3.50325ZM10.9609 3.50218L10.474 4.37564L10.9609 3.50218ZM11.8707 3.75427L11.9029 2.75479L11.8707 3.75427ZM8.44707 2.61463L8.65153 3.5935L8.44707 2.61463ZM9.29406 2.62085L9.07514 3.59659L9.29406 2.62085ZM5.23689 4.97034L6.19172 5.26748L5.23689 4.97034ZM5.65148 4.23625L4.90391 3.57207L5.65148 4.23625ZM4.86633 7.88241L5.73224 8.38261L4.86633 7.88241ZM4.92953 7.771L4.04823 7.29844L4.92953 7.771ZM5.1668 6.85551L6.16669 6.87031L5.1668 6.85551ZM4.12638 8.65601L3.61423 7.79711L4.12638 8.65601ZM4.80139 7.9928L3.95173 7.46546H3.95173L4.80139 7.9928ZM2.10293 10.3872L3.05285 10.6997L2.10293 10.3872ZM2.53234 9.65678L3.26767 10.3345H3.26767L2.53234 9.65678ZM2.53674 14.3427L1.80156 15.0205H1.80156L2.53674 14.3427ZM2.10894 13.6171L1.15987 13.9322L2.10894 13.6171ZM4.86808 16.1257L5.73596 15.629H5.73596L4.86808 16.1257ZM4.79797 16.0056L3.94765 16.5319L4.79797 16.0056ZM4.12938 15.3448L3.61352 16.2014L4.12938 15.3448ZM5.16681 17.1455L4.16696 17.1626L5.16681 17.1455ZM4.93553 16.2455L5.81976 15.7785L4.93553 16.2455ZM5.65441 19.7627L4.90827 20.4285L5.65441 19.7627ZM5.23738 19.0271L6.19195 18.7291L5.23738 19.0271ZM9.30187 21.3721L9.52091 22.3478L9.30187 21.3721ZM8.45853 21.3791L8.25586 22.3583L8.45853 21.3791ZM11.8693 20.2457L11.8372 19.2462L11.8372 19.2462L11.8693 20.2457ZM10.9617 20.4967L11.4477 21.3707L10.9617 20.4967ZM13.0392 20.4977L13.5261 19.6242L13.0392 20.4977ZM12.1298 20.2457L12.162 19.2462H12.162L12.1298 20.2457ZM15.5528 21.3853L15.7573 22.3642L15.5528 21.3853ZM14.7064 21.379L14.9253 20.4032L14.7064 21.379ZM18.7633 19.0296L19.7181 19.3268L18.7633 19.0296ZM18.3487 19.7637L19.0963 20.4279L18.3487 19.7637ZM19.1336 16.1176L18.2677 15.6174L19.1336 16.1176ZM19.0704 16.229L18.1891 15.7564L19.0704 16.229ZM18.8333 17.1445L17.8334 17.1297L18.8333 17.1445ZM19.8737 15.344L20.3858 16.2029L19.8737 15.344ZM19.1989 16.0071L20.0485 16.5344L19.1989 16.0071ZM21.8971 13.6128L22.847 13.9253L21.8971 13.6128ZM21.468 14.3431L20.7326 13.6654L21.468 14.3431ZM21.4633 9.65725L22.1985 8.97937V8.97937L21.4633 9.65725ZM21.8912 10.3828L20.9422 10.6979L21.8912 10.3828ZM19.8712 8.6554L20.3851 7.79753L19.8712 8.6554ZM19.2002 7.99498L18.3507 8.52264L19.2002 7.99498ZM12.0001 15C10.3433 15 9.00012 13.6569 9.00012 12H7.00012C7.00012 14.7614 9.23869 17 12.0001 17V15ZM9.00012 12C9.00012 10.3431 10.3433 9 12.0001 9V7C9.23869 7 7.00012 9.23858 7.00012 12H9.00012ZM12.0001 9C13.657 9 15.0001 10.3431 15.0001 12H17.0001C17.0001 9.23858 14.7615 7 12.0001 7V9ZM15.0001 12C15.0001 13.6569 13.657 15 12.0001 15V17C14.7615 17 17.0001 14.7614 17.0001 12H15.0001ZM19.4979 9.59324L19.8641 9.79697L20.8364 8.04921L20.4701 7.84548L19.4979 9.59324ZM20.9947 11.7146L20.996 12.2767L22.996 12.2721L22.9947 11.71L20.9947 11.7146ZM19.8623 14.2059L19.5008 14.4063L20.4702 16.1556L20.8317 15.9552L19.8623 14.2059ZM17.8347 17.2894L17.8419 17.7141L19.8416 17.6804L19.8344 17.2558L17.8347 17.2894ZM16.7465 19.6538L16.2589 19.9368L17.2628 21.6666L17.7505 21.3836L16.7465 19.6538ZM14.0223 19.9203L13.6662 19.7065L12.6368 21.4212L12.9928 21.635L14.0223 19.9203ZM10.3358 19.7045L9.982 19.9164L11.0094 21.6323L11.3633 21.4205L10.3358 19.7045ZM7.75336 19.9352L7.25965 19.6507L6.26108 21.3835L6.75479 21.668L7.75336 19.9352ZM6.15866 17.7074L6.16554 17.2998L4.16583 17.2661L4.15895 17.6736L6.15866 17.7074ZM4.4945 14.4023L4.13616 14.2029L3.16387 15.9507L3.52221 16.15L4.4945 14.4023ZM3.00578 12.2854L3.00451 11.7233L1.00451 11.7279L1.00579 12.29L3.00578 12.2854ZM4.13815 9.79404L4.49972 9.59367L3.53029 7.84432L3.16872 8.04469L4.13815 9.79404ZM6.16532 6.71057L6.15818 6.28591L4.15846 6.31956L4.16561 6.74422L6.16532 6.71057ZM7.25355 4.34616L7.74121 4.06313L6.73727 2.33336L6.24961 2.61639L7.25355 4.34616ZM9.97808 4.07965L10.3342 4.29342L11.3636 2.5787L11.0075 2.36493L9.97808 4.07965ZM13.6642 4.29541L14.0181 4.08355L12.9906 2.36763L12.6368 2.57949L13.6642 4.29541ZM16.2464 4.0648L16.7402 4.34936L17.7388 2.61649L17.245 2.33193L16.2464 4.0648ZM17.8417 6.29251L17.8347 6.70951L19.8344 6.74315L19.8415 6.32615L17.8417 6.29251ZM17.8347 6.70951C17.8338 6.76504 17.8326 6.81922 17.8334 6.87176L19.8332 6.84119C19.833 6.82957 19.8332 6.81794 19.8344 6.74315L17.8347 6.70951ZM20 7.38306C19.9643 7.32124 19.9573 7.30889 19.9515 7.29801L18.1884 8.24228C18.2129 8.28797 18.2387 8.33235 18.2682 8.38345L20 7.38306ZM17.8334 6.87176C17.8407 7.35025 17.9623 7.82017 18.1884 8.24228L19.9515 7.29801C19.8762 7.15747 19.8356 7.00088 19.8332 6.84119L17.8334 6.87176ZM16.7402 4.34936C17.3949 4.7266 17.5183 4.81145 17.6 4.90299L19.0923 3.57138C18.7449 3.18211 18.2732 2.92441 17.7388 2.61649L16.7402 4.34936ZM19.8415 6.32615C19.8519 5.70881 19.8728 5.1726 19.7174 4.67475L17.8083 5.27081C17.8449 5.38807 17.8544 5.53778 17.8417 6.29251L19.8415 6.32615ZM17.6 4.90298C17.6946 5.009 17.7657 5.13436 17.8083 5.27081L19.7174 4.67475C19.5901 4.26703 19.3772 3.89071 19.0923 3.57138L17.6 4.90298ZM14.0181 4.08354C14.6646 3.69642 14.7979 3.63033 14.9172 3.60353L14.4792 1.65209C13.9713 1.7661 13.5182 2.05175 12.9906 2.36763L14.0181 4.08354ZM17.245 2.33193C16.7115 2.02447 16.2538 1.74705 15.7443 1.6416L15.3389 3.6001C15.459 3.62494 15.5943 3.689 16.2464 4.0648L17.245 2.33193ZM14.9172 3.60353C15.0557 3.57244 15.1995 3.57123 15.3389 3.6001L15.7443 1.6416C15.3269 1.55521 14.8956 1.55861 14.4792 1.65209L14.9172 3.60353ZM12.0006 4.7553C12.0597 4.7553 12.1108 4.75542 12.1626 4.75376L12.0985 2.75479C12.0861 2.75519 12.072 2.7553 12.0006 2.7553V4.7553ZM12.6368 2.57949C12.58 2.61348 12.5645 2.62246 12.5523 2.62925L13.5241 4.37724C13.568 4.35286 13.6091 4.32842 13.6642 4.29541L12.6368 2.57949ZM12.1626 4.75376C12.6401 4.73843 13.1068 4.60926 13.5241 4.37724L12.5523 2.62925C12.413 2.70667 12.2574 2.74969 12.0985 2.75479L12.1626 4.75376ZM10.3342 4.29342C10.384 4.32336 10.4285 4.35024 10.474 4.37564L11.4478 2.62871C11.4372 2.6228 11.4258 2.61608 11.3636 2.5787L10.3342 4.29342ZM12.0006 2.7553C11.929 2.7553 11.9152 2.75519 11.9029 2.75479L11.8386 4.75376C11.8905 4.75543 11.9415 4.7553 12.0006 4.7553V2.7553ZM10.474 4.37564C10.8922 4.60871 11.3602 4.73837 11.8386 4.75376L11.9029 2.75479C11.7434 2.74966 11.5871 2.70636 11.4478 2.62871L10.474 4.37564ZM7.74121 4.06313C8.39543 3.68343 8.53113 3.61865 8.65153 3.5935L8.24261 1.63575C7.7312 1.74257 7.27211 2.02295 6.73727 2.33336L7.74121 4.06313ZM11.0075 2.36493C10.4777 2.04685 10.0229 1.75951 9.51298 1.64511L9.07514 3.59659C9.19506 3.6235 9.32919 3.69009 9.97808 4.07965L11.0075 2.36493ZM8.65153 3.5935C8.79136 3.56429 8.93595 3.56537 9.07514 3.59659L9.51298 1.64511C9.09503 1.55133 8.66171 1.54821 8.24261 1.63575L8.65153 3.5935ZM6.15818 6.28591C6.14553 5.53448 6.15527 5.38461 6.19172 5.26748L4.28206 4.67319C4.12759 5.16954 4.1481 5.70352 4.15846 6.31956L6.15818 6.28591ZM6.24961 2.61639C5.71717 2.92542 5.24925 3.18338 4.90391 3.57207L6.39905 4.90043C6.48045 4.80882 6.60312 4.72367 7.25355 4.34616L6.24961 2.61639ZM6.19172 5.26748C6.2339 5.13193 6.30458 5.00677 6.39905 4.90043L4.90391 3.57207C4.62086 3.89066 4.40877 4.26602 4.28206 4.67319L6.19172 5.26748ZM5.73224 8.38261C5.76135 8.33221 5.78669 8.28857 5.81083 8.24356L4.04823 7.29844C4.04248 7.30917 4.03562 7.32128 4.00041 7.38222L5.73224 8.38261ZM4.16561 6.74422C4.16687 6.8196 4.16707 6.82948 4.16691 6.8407L6.16669 6.87031C6.16746 6.81828 6.16622 6.76381 6.16532 6.71057L4.16561 6.74422ZM5.81083 8.24356C6.03741 7.82099 6.15958 7.35011 6.16669 6.87031L4.16691 6.8407C4.16454 7.00039 4.12388 7.15736 4.04823 7.29844L5.81083 8.24356ZM4.49972 9.59367C4.55314 9.56406 4.59531 9.54068 4.63853 9.51491L3.61423 7.79711C3.60308 7.80376 3.58944 7.81154 3.53029 7.84432L4.49972 9.59367ZM4.00041 7.38222C3.96542 7.44281 3.95822 7.45501 3.95173 7.46546L5.65104 8.52014C5.67793 8.47682 5.70287 8.43344 5.73224 8.38261L4.00041 7.38222ZM4.63853 9.51491C5.05086 9.26903 5.39803 8.92779 5.65104 8.52014L3.95173 7.46546C3.86729 7.60151 3.75151 7.71526 3.61423 7.79711L4.63853 9.51491ZM3.00451 11.7233C3.00279 10.9661 3.01442 10.8165 3.05285 10.6997L1.15302 10.0747C0.989645 10.5713 1.00311 11.1095 1.00451 11.7279L3.00451 11.7233ZM3.16872 8.04469C2.6276 8.34456 2.15126 8.59471 1.79702 8.97907L3.26767 10.3345C3.35105 10.244 3.47614 10.1609 4.13815 9.79404L3.16872 8.04469ZM3.05285 10.6997C3.09734 10.5645 3.17057 10.4398 3.26767 10.3345L1.79702 8.97907C1.50696 9.29378 1.28706 9.66729 1.15302 10.0747L3.05285 10.6997ZM4.13616 14.2029C3.47895 13.8373 3.35479 13.7547 3.27191 13.6648L1.80156 15.0205C2.15383 15.4026 2.62707 15.652 3.16387 15.9507L4.13616 14.2029ZM1.00579 12.29C1.00718 12.9038 0.996105 13.4389 1.15987 13.9322L3.05801 13.302C3.01952 13.1861 3.00749 13.038 3.00578 12.2854L1.00579 12.29ZM3.27191 13.6648C3.1756 13.5603 3.10271 13.4367 3.05801 13.302L1.15987 13.9322C1.2941 14.3365 1.51289 14.7075 1.80156 15.0205L3.27191 13.6648ZM5.73596 15.629C5.70455 15.5741 5.67746 15.5265 5.64828 15.4793L3.94765 16.5319C3.95461 16.5431 3.96223 16.5562 4.0002 16.6225L5.73596 15.629ZM3.52221 16.15C3.58973 16.1876 3.60237 16.1947 3.61352 16.2014L4.64524 14.4881C4.59757 14.4594 4.54896 14.4325 4.4945 14.4023L3.52221 16.15ZM5.64828 15.4793C5.39765 15.0744 5.05421 14.7344 4.64524 14.4881L3.61352 16.2014C3.74919 16.2831 3.8637 16.3963 3.94765 16.5319L5.64828 15.4793ZM6.16554 17.2998C6.16662 17.2363 6.16759 17.183 6.16667 17.1285L4.16696 17.1626C4.16718 17.1759 4.16709 17.1917 4.16583 17.2661L6.16554 17.2998ZM4.0002 16.6225C4.03993 16.6919 4.04561 16.7018 4.05129 16.7126L5.81976 15.7785C5.79375 15.7292 5.76476 15.6793 5.73596 15.629L4.0002 16.6225ZM6.16667 17.1285C6.15863 16.6574 6.03972 16.1949 5.81976 15.7785L4.05129 16.7126C4.12468 16.8515 4.16428 17.0057 4.16696 17.1626L6.16667 17.1285ZM7.25965 19.6507C6.60602 19.274 6.48242 19.1887 6.40055 19.0969L4.90827 20.4285C5.25546 20.8176 5.72568 21.075 6.26108 21.3835L7.25965 19.6507ZM4.15895 17.6736C4.14853 18.2906 4.12735 18.8272 4.28281 19.3251L6.19195 18.7291C6.15537 18.612 6.14592 18.4625 6.15866 17.7074L4.15895 17.6736ZM6.40055 19.0969C6.30539 18.9903 6.2343 18.8648 6.19195 18.7291L4.28281 19.3251C4.41035 19.7337 4.62387 20.1098 4.90827 20.4285L6.40055 19.0969ZM9.982 19.9164C9.33556 20.3035 9.20224 20.3696 9.08283 20.3964L9.52091 22.3478C10.0287 22.2338 10.4818 21.9483 11.0094 21.6323L9.982 19.9164ZM6.75479 21.668C7.2887 21.9757 7.74649 22.2529 8.25586 22.3583L8.6612 20.3999C8.54109 20.375 8.40515 20.3107 7.75336 19.9352L6.75479 21.668ZM9.08283 20.3964C8.9442 20.4275 8.80051 20.4287 8.6612 20.3999L8.25586 22.3583C8.67344 22.4448 9.10466 22.4412 9.52091 22.3478L9.08283 20.3964ZM11.9992 19.2446C11.9401 19.2446 11.889 19.2445 11.8372 19.2462L11.9013 21.2451C11.9137 21.2447 11.9278 21.2446 11.9992 21.2446V19.2446ZM11.3633 21.4205C11.4212 21.3858 11.4359 21.3773 11.4477 21.3707L10.4758 19.6227C10.4315 19.6473 10.3898 19.6722 10.3358 19.7045L11.3633 21.4205ZM11.8372 19.2462C11.3596 19.2615 10.893 19.3908 10.4758 19.6227L11.4477 21.3707C11.587 21.2932 11.7425 21.2502 11.9013 21.2451L11.8372 19.2462ZM13.6662 19.7065C13.6144 19.6754 13.5712 19.6493 13.5261 19.6242L12.5523 21.3711C12.5634 21.3773 12.5764 21.385 12.6368 21.4212L13.6662 19.7065ZM11.9992 21.2446C12.0708 21.2446 12.0853 21.2447 12.0977 21.2451L12.162 19.2462C12.1101 19.2445 12.0583 19.2446 11.9992 19.2446V21.2446ZM13.5261 19.6242C13.108 19.3912 12.6404 19.2616 12.162 19.2462L12.0977 21.2451C12.2571 21.2503 12.4129 21.2934 12.5523 21.3711L13.5261 19.6242ZM16.2589 19.9368C15.6048 20.3164 15.4688 20.3813 15.3484 20.4065L15.7573 22.3642C16.2687 22.2574 16.7278 21.9771 17.2628 21.6666L16.2589 19.9368ZM12.9928 21.635C13.5229 21.9532 13.9776 22.2403 14.4874 22.3547L14.9253 20.4032C14.8053 20.3763 14.6709 20.3097 14.0223 19.9203L12.9928 21.635ZM15.3484 20.4065C15.2089 20.4356 15.0648 20.4345 14.9253 20.4032L14.4874 22.3547C14.9051 22.4484 15.3379 22.4518 15.7573 22.3642L15.3484 20.4065ZM17.8419 17.7141C17.8545 18.4658 17.8449 18.6154 17.8085 18.7325L19.7181 19.3268C19.8726 18.8303 19.852 18.2961 19.8416 17.6804L17.8419 17.7141ZM17.7505 21.3836C18.2829 21.0746 18.7509 20.8166 19.0963 20.4279L17.6011 19.0995C17.5197 19.1911 17.397 19.2763 16.7465 19.6538L17.7505 21.3836ZM17.8085 18.7325C17.7663 18.8679 17.6956 18.9931 17.6011 19.0995L19.0963 20.4279C19.3793 20.1093 19.5914 19.734 19.7181 19.3268L17.8085 18.7325ZM18.2677 15.6174C18.2386 15.6677 18.2133 15.7114 18.1891 15.7564L19.9517 16.7015C19.9575 16.6908 19.9644 16.6787 19.9995 16.6177L18.2677 15.6174ZM19.8344 17.2558C19.8332 17.1814 19.833 17.1707 19.8332 17.1593L17.8334 17.1297C17.8326 17.1816 17.8338 17.2351 17.8347 17.2894L19.8344 17.2558ZM18.1891 15.7564C17.9624 16.1793 17.8405 16.6502 17.8334 17.1297L19.8332 17.1593C19.8356 16.9993 19.8762 16.8423 19.9517 16.7015L18.1891 15.7564ZM19.5008 14.4063C19.4506 14.434 19.4056 14.4588 19.3615 14.4851L20.3858 16.2029C20.3961 16.1968 20.4077 16.1902 20.4702 16.1556L19.5008 14.4063ZM19.9995 16.6177C20.0318 16.5619 20.0411 16.5464 20.0485 16.5344L18.3492 15.4797C18.3233 15.5215 18.2998 15.5618 18.2677 15.6174L19.9995 16.6177ZM19.3615 14.4851C18.949 14.7311 18.6021 15.0722 18.3492 15.4797L20.0485 16.5344C20.1331 16.3982 20.2487 16.2847 20.3858 16.2029L19.3615 14.4851ZM20.996 12.2767C20.9977 13.0326 20.9857 13.1832 20.9472 13.3002L22.847 13.9253C23.0103 13.429 22.9974 12.8918 22.996 12.2721L20.996 12.2767ZM20.8317 15.9552C21.3731 15.6553 21.8491 15.4052 22.2033 15.0209L20.7326 13.6654C20.6492 13.7559 20.5241 13.8391 19.8623 14.2059L20.8317 15.9552ZM20.9472 13.3002C20.9025 13.436 20.8294 13.5605 20.7326 13.6654L22.2033 15.0209C22.4937 14.7058 22.7131 14.3322 22.847 13.9253L20.9472 13.3002ZM19.8641 9.79697C20.521 10.1624 20.6452 10.2452 20.7281 10.3351L22.1985 8.97937C21.8463 8.59738 21.3735 8.348 20.8364 8.04921L19.8641 9.79697ZM22.9947 11.71C22.9933 11.0953 23.004 10.5609 22.8403 10.0677L20.9422 10.6979C20.9807 10.814 20.993 10.9629 20.9947 11.7146L22.9947 11.71ZM20.7281 10.3351C20.8246 10.4398 20.8975 10.5635 20.9422 10.6979L22.8403 10.0677C22.706 9.66317 22.487 9.29225 22.1985 8.97937L20.7281 10.3351ZM20.4701 7.84548C20.4088 7.81134 20.3959 7.804 20.3851 7.79753L19.3573 9.51326C19.4015 9.5397 19.4455 9.56411 19.4979 9.59324L20.4701 7.84548ZM18.2682 8.38345C18.3013 8.44088 18.3247 8.48085 18.3507 8.52264L20.0496 7.46731C20.0418 7.45469 20.032 7.43842 20 7.38306L18.2682 8.38345ZM20.3851 7.79753C20.2487 7.71584 20.1337 7.60267 20.0496 7.46731L18.3507 8.52264C18.6026 8.9281 18.9475 9.26779 19.3573 9.51326L20.3851 7.79753Z" fill="#488488"/>
</svg>
