<svg width="229" height="62" viewBox="0 0 229 62" fill="none" xmlns="http://www.w3.org/2000/svg">
<path opacity="0.48" fill-rule="evenodd" clip-rule="evenodd" d="M0.708013 16.7285L16.7285 0.708013L16.0205 0L0 16.0205L0.708013 16.7285ZM0.708013 11.7221L11.7221 0.708013L11.0141 0L0 11.0141L0.708013 11.7221ZM0.708013 6.7157L6.7157 0.708013L6.00769 0L0 6.00769L0.708013 6.7157ZM5.71442 16.7285L6.7157 15.7272L21.7349 0.708013L21.0269 0L6.00769 15.0192L5.0064 16.0205L0 21.0269L0.708013 21.7349L5.71442 16.7285ZM10.7208 16.7285L11.7221 15.7272L26.7413 0.708013L26.0333 0L11.0141 15.0192L10.0128 16.0205L0 26.0333L0.708013 26.7413L10.7208 16.7285ZM15.7272 16.7285L16.7285 15.7272L31.7477 0.708013L31.0397 0L16.0205 15.0192L15.0192 16.0205L0 31.0397L0.708013 31.7477L15.7272 16.7285ZM20.7336 16.7285L21.7349 15.7272L36.7541 0.708013L36.0461 0L21.0269 15.0192L20.0256 16.0205L6.00769 30.0384L5.0064 31.0397L0 36.0461L0.708013 36.7541L5.71442 31.7477L6.7157 30.7464L20.7336 16.7285ZM25.74 16.7285L26.7413 15.7272L41.7605 0.708013L41.0525 0L26.0333 15.0192L25.032 16.0205L11.0141 30.0384L10.0128 31.0397L0 41.0525L0.708013 41.7605L10.7208 31.7477L11.7221 30.7464L25.74 16.7285ZM30.7464 16.7285L31.7477 15.7272L46.7669 0.708013L46.0589 0L31.0397 15.0192L30.0384 16.0205L16.0205 30.0384L15.0192 31.0397L0 46.0589L0.708013 46.7669L15.7272 31.7477L16.7285 30.7464L30.7464 16.7285ZM35.7528 16.7285L36.7541 15.7272L45.7657 6.7157L48.7695 3.71186L51.7733 0.708013L51.0653 0L48.0615 3.00384L45.0576 6.00769L36.0461 15.0192L35.0448 16.0205L21.0269 30.0384L20.0256 31.0397L6.00769 45.0576L5.0064 46.0589L0 51.0653L0.708013 51.7733L5.71442 46.7669L6.7157 45.7657L20.7336 31.7477L21.7349 30.7464L35.7528 16.7285ZM40.7593 16.7285L41.7605 15.7272L45.7657 11.7221L48.7695 8.71826L56.7797 0.708013L56.0717 0L48.0615 8.01025L45.0576 11.0141L41.0525 15.0192L40.0512 16.0205L26.0333 30.0384L25.032 31.0397L11.0141 45.0576L10.0128 46.0589L0 56.0717L0.708013 56.7797L10.7208 46.7669L11.7221 45.7657L25.74 31.7477L26.7413 30.7464L40.7593 16.7285ZM45.7657 16.7285L46.7669 15.7272L48.7695 13.7247L61.7862 0.708013L61.0781 0L48.0615 13.0167L46.0589 15.0192L45.0576 16.0205L31.0397 30.0384L30.0384 31.0397L16.0205 45.0576L15.0192 46.0589L0 61.0781L0.708013 61.7862L15.7272 46.7669L16.7285 45.7657L30.7464 31.7477L31.7477 30.7464L45.7657 16.7285ZM91.1166 15.0192L90.1153 16.0205L76.0974 30.0384L75.0961 31.0397L61.0781 45.0576L60.0769 46.0589L48.0615 58.0743L45.0576 61.0781L45.7657 61.7862L48.7695 58.7823L60.7849 46.7669L61.7862 45.7657L75.8041 31.7477L76.8054 30.7464L90.8233 16.7285L91.8246 15.7272L93.8271 13.7247L106.844 0.708013L106.136 0L93.1191 13.0167L91.1166 15.0192ZM90.8233 11.7221L93.8271 8.71826L101.837 0.708013L101.129 0L93.1191 8.01025L90.1153 11.0141L86.1102 15.0192L85.1089 16.0205L71.0909 30.0384L70.0897 31.0397L56.0717 45.0576L55.0705 46.0589L48.0615 53.0679L45.0576 56.0717L40.0512 61.0781L40.7593 61.7862L45.7657 56.7797L48.7695 53.7759L55.7785 46.7669L56.7797 45.7657L70.7977 31.7477L71.799 30.7464L85.8169 16.7285L86.8182 15.7272L90.8233 11.7221ZM90.8233 6.7157L93.8271 3.71186L96.831 0.708013L96.123 0L93.1191 3.00384L90.1153 6.00769L81.1038 15.0192L80.1025 16.0205L66.0845 30.0384L65.0833 31.0397L51.0653 45.0576L50.064 46.0589L48.0615 48.0615L45.0576 51.0653L35.0448 61.0781L35.7528 61.7862L45.7657 51.7733L48.7695 48.7695L50.7721 46.7669L51.7733 45.7657L65.7913 31.7477L66.7926 30.7464L80.8105 16.7285L81.8118 15.7272L90.8233 6.7157ZM95.8297 16.7285L93.8271 18.7311L90.8233 21.7349L81.8118 30.7464L80.8105 31.7477L66.7926 45.7657L65.7913 46.7669L50.7721 61.7862L50.064 61.0781L65.0833 46.0589L66.0845 45.0576L80.1025 31.0397L81.1038 30.0384L90.1153 21.0269L93.1191 18.0231L95.1217 16.0205L96.123 15.0192L111.142 0L111.85 0.708013L96.831 15.7272L95.8297 16.7285ZM85.8169 31.7477L86.8182 30.7464L90.8233 26.7413L93.8271 23.7375L100.836 16.7285L101.837 15.7272L116.857 0.708013L116.149 0L101.129 15.0192L100.128 16.0205L93.1191 23.0295L90.1153 26.0333L86.1102 30.0384L85.1089 31.0397L71.0909 45.0576L70.0897 46.0589L55.0705 61.0781L55.7785 61.7862L70.7977 46.7669L71.799 45.7657L85.8169 31.7477ZM105.843 16.7285L93.8271 28.7439L91.8246 30.7464L90.8233 31.7477L76.8054 45.7657L75.8041 46.7669L60.7849 61.7862L60.0769 61.0781L75.0961 46.0589L76.0974 45.0576L90.1153 31.0397L91.1166 30.0384L93.1191 28.0359L105.135 16.0205L106.136 15.0192L121.155 0L121.863 0.708013L106.844 15.7272L105.843 16.7285ZM96.831 30.7464L95.8297 31.7477L93.8271 33.7503L90.8233 36.7541L81.8118 45.7657L80.8105 46.7669L65.7913 61.7862L65.0833 61.0781L80.1025 46.0589L81.1038 45.0576L90.1153 36.0461L93.1191 33.0423L95.1217 31.0397L96.123 30.0384L110.141 16.0205L111.142 15.0192L126.161 0L126.869 0.708013L111.85 15.7272L110.849 16.7285L96.831 30.7464ZM101.837 30.7464L100.836 31.7477L93.8271 38.7567L90.8233 41.7605L86.8182 45.7657L85.8169 46.7669L70.7977 61.7862L70.0897 61.0781L85.1089 46.0589L86.1102 45.0576L90.1153 41.0525L93.1191 38.0487L100.128 31.0397L101.129 30.0384L115.147 16.0205L116.149 15.0192L131.168 0L131.876 0.708013L116.857 15.7272L115.855 16.7285L101.837 30.7464ZM106.844 30.7464L105.843 31.7477L93.8271 43.7631L91.8246 45.7657L90.8233 46.7669L75.8041 61.7862L75.0961 61.0781L90.1153 46.0589L91.1166 45.0576L93.1191 43.0551L105.135 31.0397L106.136 30.0384L120.154 16.0205L121.155 15.0192L136.174 0L136.882 0.708013L121.863 15.7272L120.862 16.7285L106.844 30.7464ZM135.881 6.7157L138.885 3.71186L141.889 0.708013L141.181 0L138.177 3.00384L135.173 6.00769L126.161 15.0192L125.16 16.0205L111.142 30.0384L110.141 31.0397L96.123 45.0576L95.1217 46.0589L93.1191 48.0615L90.1153 51.0653L80.1025 61.0781L80.8105 61.7862L90.8233 51.7733L93.8271 48.7695L95.8297 46.7669L96.831 45.7657L110.849 31.7477L111.85 30.7464L125.868 16.7285L126.869 15.7272L135.881 6.7157ZM135.881 11.7221L138.885 8.71826L146.895 0.708013L146.187 0L138.177 8.01025L135.173 11.0141L131.168 15.0192L130.167 16.0205L116.149 30.0384L115.147 31.0397L101.129 45.0576L100.128 46.0589L93.1191 53.0679L90.1153 56.0717L85.1089 61.0781L85.8169 61.7862L90.8233 56.7797L93.8271 53.7759L100.836 46.7669L101.837 45.7657L115.855 31.7477L116.857 30.7464L130.875 16.7285L131.876 15.7272L135.881 11.7221ZM136.882 15.7272L138.885 13.7247L151.901 0.708013L151.193 0L138.177 13.0167L136.174 15.0192L135.173 16.0205L121.155 30.0384L120.154 31.0397L106.136 45.0576L105.135 46.0589L93.1191 58.0743L90.1153 61.0781L90.8233 61.7862L93.8271 58.7823L105.843 46.7669L106.844 45.7657L120.862 31.7477L121.863 30.7464L135.881 16.7285L136.882 15.7272ZM48.7695 18.7311L45.7657 21.7349L36.7541 30.7464L35.7528 31.7477L21.7349 45.7657L20.7336 46.7669L5.71442 61.7862L5.0064 61.0781L20.0256 46.0589L21.0269 45.0576L35.0448 31.0397L36.0461 30.0384L45.0576 21.0269L48.0615 18.0231L50.064 16.0205L51.0653 15.0192L66.0845 0L66.7926 0.708013L51.7733 15.7272L50.7721 16.7285L48.7695 18.7311ZM48.7695 23.7375L45.7657 26.7413L41.7605 30.7464L40.7593 31.7477L26.7413 45.7657L25.74 46.7669L10.7208 61.7862L10.0128 61.0781L25.032 46.0589L26.0333 45.0576L40.0512 31.0397L41.0525 30.0384L45.0576 26.0333L48.0615 23.0295L55.0705 16.0205L56.0717 15.0192L71.0909 0L71.799 0.708013L56.7797 15.7272L55.7785 16.7285L48.7695 23.7375ZM48.7695 28.7439L46.7669 30.7464L45.7657 31.7477L31.7477 45.7657L30.7464 46.7669L15.7272 61.7862L15.0192 61.0781L30.0384 46.0589L31.0397 45.0576L45.0576 31.0397L46.0589 30.0384L48.0615 28.0359L60.0769 16.0205L61.0781 15.0192L76.0974 0L76.8054 0.708013L61.7862 15.7272L60.7849 16.7285L48.7695 28.7439ZM135.881 21.7349L138.885 18.7311L140.887 16.7285L141.889 15.7272L156.908 0.708013L156.2 0L141.181 15.0192L140.179 16.0205L138.177 18.0231L135.173 21.0269L126.161 30.0384L125.16 31.0397L111.142 45.0576L110.141 46.0589L95.1217 61.0781L95.8297 61.7862L110.849 46.7669L111.85 45.7657L125.868 31.7477L126.869 30.7464L135.881 21.7349ZM135.881 26.7413L138.885 23.7375L145.894 16.7285L146.895 15.7272L161.914 0.708013L161.206 0L146.187 15.0192L145.186 16.0205L138.177 23.0295L135.173 26.0333L131.168 30.0384L130.167 31.0397L116.149 45.0576L115.147 46.0589L100.128 61.0781L100.836 61.7862L115.855 46.7669L116.857 45.7657L130.875 31.7477L131.876 30.7464L135.881 26.7413ZM136.882 30.7464L138.885 28.7439L150.9 16.7285L151.901 15.7272L166.921 0.708013L166.213 0L151.193 15.0192L150.192 16.0205L138.177 28.0359L136.174 30.0384L135.173 31.0397L121.155 45.0576L120.154 46.0589L105.135 61.0781L105.843 61.7862L120.862 46.7669L121.863 45.7657L135.881 31.7477L136.882 30.7464ZM48.7695 33.7503L45.7657 36.7541L36.7541 45.7657L35.7528 46.7669L20.7336 61.7862L20.0256 61.0781L35.0448 46.0589L36.0461 45.0576L45.0576 36.0461L48.0615 33.0423L50.064 31.0397L51.0653 30.0384L65.0833 16.0205L66.0845 15.0192L81.1038 0L81.8118 0.708013L66.7926 15.7272L65.7913 16.7285L51.7733 30.7464L50.7721 31.7477L48.7695 33.7503ZM48.7695 38.7567L45.7657 41.7605L41.7605 45.7657L40.7593 46.7669L25.74 61.7862L25.032 61.0781L40.0512 46.0589L41.0525 45.0576L45.0576 41.0525L48.0615 38.0487L55.0705 31.0397L56.0717 30.0384L70.0897 16.0205L71.0909 15.0192L86.1102 0L86.8182 0.708013L71.799 15.7272L70.7977 16.7285L56.7797 30.7464L55.7785 31.7477L48.7695 38.7567ZM48.7695 43.7631L46.7669 45.7657L45.7657 46.7669L30.7464 61.7862L30.0384 61.0781L45.0576 46.0589L46.0589 45.0576L48.0615 43.0551L60.0769 31.0397L61.0781 30.0384L75.0961 16.0205L76.0974 15.0192L91.1166 0L91.8246 0.708013L76.8054 15.7272L75.8041 16.7285L61.7862 30.7464L60.7849 31.7477L48.7695 43.7631ZM135.881 36.7541L138.885 33.7503L140.887 31.7477L141.889 30.7464L155.907 16.7285L156.908 15.7272L171.927 0.708013L171.219 0L156.2 15.0192L155.199 16.0205L141.181 30.0384L140.179 31.0397L138.177 33.0423L135.173 36.0461L126.161 45.0576L125.16 46.0589L110.141 61.0781L110.849 61.7862L125.868 46.7669L126.869 45.7657L135.881 36.7541ZM135.881 41.7605L138.885 38.7567L145.894 31.7477L146.895 30.7464L160.913 16.7285L161.914 15.7272L176.933 0.708013L176.225 0L161.206 15.0192L160.205 16.0205L146.187 30.0384L145.186 31.0397L138.177 38.0487L135.173 41.0525L131.168 45.0576L130.167 46.0589L115.147 61.0781L115.855 61.7862L130.875 46.7669L131.876 45.7657L135.881 41.7605ZM136.882 45.7657L138.885 43.7631L150.9 31.7477L151.901 30.7464L165.919 16.7285L166.921 15.7272L181.94 0.708013L181.232 0L166.213 15.0192L165.211 16.0205L151.193 30.0384L150.192 31.0397L138.177 43.0551L136.174 45.0576L135.173 46.0589L120.154 61.0781L120.862 61.7862L135.881 46.7669L136.882 45.7657ZM135.881 51.7733L138.885 48.7695L140.887 46.7669L141.889 45.7657L155.907 31.7477L156.908 30.7464L170.926 16.7285L171.927 15.7272L180.939 6.7157L183.942 3.71186L186.946 0.708013L186.238 0L183.234 3.00384L180.231 6.00769L171.219 15.0192L170.218 16.0205L156.2 30.0384L155.199 31.0397L141.181 45.0576L140.179 46.0589L138.177 48.0615L135.173 51.0653L125.16 61.0781L125.868 61.7862L135.881 51.7733ZM135.881 56.7797L138.885 53.7759L145.894 46.7669L146.895 45.7657L160.913 31.7477L161.914 30.7464L175.932 16.7285L176.933 15.7272L180.939 11.7221L183.942 8.71826L191.953 0.708013L191.245 0L183.234 8.01025L180.231 11.0141L176.225 15.0192L175.224 16.0205L161.206 30.0384L160.205 31.0397L146.187 45.0576L145.186 46.0589L138.177 53.0679L135.173 56.0717L130.167 61.0781L130.875 61.7862L135.881 56.7797ZM135.881 61.7862L138.885 58.7823L150.9 46.7669L151.901 45.7657L165.919 31.7477L166.921 30.7464L180.939 16.7285L181.94 15.7272L183.942 13.7247L196.959 0.708013L196.251 0L183.234 13.0167L181.232 15.0192L180.231 16.0205L166.213 30.0384L165.211 31.0397L151.193 45.0576L150.192 46.0589L138.177 58.0743L135.173 61.0781L135.881 61.7862ZM180.939 21.7349L183.942 18.7311L185.945 16.7285L186.946 15.7272L201.965 0.708013L201.257 0L186.238 15.0192L185.237 16.0205L183.234 18.0231L180.231 21.0269L171.219 30.0384L170.218 31.0397L156.2 45.0576L155.199 46.0589L140.179 61.0781L140.887 61.7862L155.907 46.7669L156.908 45.7657L170.926 31.7477L171.927 30.7464L180.939 21.7349ZM180.939 26.7413L183.942 23.7375L190.951 16.7285L191.953 15.7272L206.972 0.708013L206.264 0L191.245 15.0192L190.243 16.0205L183.234 23.0295L180.231 26.0333L176.225 30.0384L175.224 31.0397L161.206 45.0576L160.205 46.0589L145.186 61.0781L145.894 61.7862L160.913 46.7669L161.914 45.7657L175.932 31.7477L176.933 30.7464L180.939 26.7413ZM181.94 30.7464L183.942 28.7439L195.958 16.7285L196.959 15.7272L211.978 0.708013L211.27 0L196.251 15.0192L195.25 16.0205L183.234 28.0359L181.232 30.0384L180.231 31.0397L166.213 45.0576L165.211 46.0589L150.192 61.0781L150.9 61.7862L165.919 46.7669L166.921 45.7657L180.939 31.7477L181.94 30.7464ZM180.939 36.7541L183.942 33.7503L185.945 31.7477L186.946 30.7464L200.964 16.7285L201.965 15.7272L216.985 0.708013L216.277 0L201.257 15.0192L200.256 16.0205L186.238 30.0384L185.237 31.0397L183.234 33.0423L180.231 36.0461L171.219 45.0576L170.218 46.0589L155.199 61.0781L155.907 61.7862L170.926 46.7669L171.927 45.7657L180.939 36.7541ZM180.939 41.7605L183.942 38.7567L190.951 31.7477L191.953 30.7464L205.971 16.7285L206.972 15.7272L221.991 0.708013L221.283 0L206.264 15.0192L205.263 16.0205L191.245 30.0384L190.243 31.0397L183.234 38.0487L180.231 41.0525L176.225 45.0576L175.224 46.0589L160.205 61.0781L160.913 61.7862L175.932 46.7669L176.933 45.7657L180.939 41.7605ZM181.94 45.7657L183.942 43.7631L195.958 31.7477L196.959 30.7464L210.977 16.7285L211.978 15.7272L226.997 0.708013L226.29 0L211.27 15.0192L210.269 16.0205L196.251 30.0384L195.25 31.0397L183.234 43.0551L181.232 45.0576L180.231 46.0589L165.211 61.0781L165.919 61.7862L180.939 46.7669L181.94 45.7657ZM180.939 51.7733L183.942 48.7695L185.945 46.7669L186.946 45.7657L200.964 31.7477L201.965 30.7464L215.983 16.7285L216.985 15.7272L229 3.71186L228.292 3.00384L216.277 15.0192L215.275 16.0205L201.257 30.0384L200.256 31.0397L186.238 45.0576L185.237 46.0589L183.234 48.0615L180.231 51.0653L170.218 61.0781L170.926 61.7862L180.939 51.7733ZM180.939 56.7797L183.942 53.7759L190.951 46.7669L191.953 45.7657L205.971 31.7477L206.972 30.7464L220.99 16.7285L221.991 15.7272L229 8.71826L228.292 8.01025L221.283 15.0192L220.282 16.0205L206.264 30.0384L205.263 31.0397L191.245 45.0576L190.243 46.0589L183.234 53.0679L180.231 56.0717L175.224 61.0781L175.932 61.7862L180.939 56.7797ZM180.939 61.7862L183.942 58.7823L195.958 46.7669L196.959 45.7657L210.977 31.7477L211.978 30.7464L225.996 16.7285L226.997 15.7272L229 13.7247L228.292 13.0167L226.29 15.0192L225.288 16.0205L211.27 30.0384L210.269 31.0397L196.251 45.0576L195.25 46.0589L183.234 58.0743L180.231 61.0781L180.939 61.7862ZM216.985 30.7464L229 18.7311L228.292 18.0231L216.277 30.0384L215.275 31.0397L201.257 45.0576L200.256 46.0589L185.237 61.0781L185.945 61.7862L200.964 46.7669L201.965 45.7657L215.983 31.7477L216.985 30.7464ZM221.991 30.7464L229 23.7375L228.292 23.0295L221.283 30.0384L220.282 31.0397L206.264 45.0576L205.263 46.0589L190.243 61.0781L190.951 61.7862L205.971 46.7669L206.972 45.7657L220.99 31.7477L221.991 30.7464ZM226.997 30.7464L229 28.7439L228.292 28.0359L226.29 30.0384L225.288 31.0397L211.27 45.0576L210.269 46.0589L195.25 61.0781L195.958 61.7862L210.977 46.7669L211.978 45.7657L225.996 31.7477L226.997 30.7464ZM216.985 45.7657L229 33.7503L228.292 33.0423L216.277 45.0576L215.275 46.0589L200.256 61.0781L200.964 61.7862L215.983 46.7669L216.985 45.7657ZM221.991 45.7657L229 38.7567L228.292 38.0487L221.283 45.0576L220.282 46.0589L205.263 61.0781L205.971 61.7862L220.99 46.7669L221.991 45.7657ZM226.997 45.7657L229 43.7631L228.292 43.0551L226.29 45.0576L225.288 46.0589L210.269 61.0781L210.977 61.7862L225.996 46.7669L226.997 45.7657ZM215.983 61.7862L229 48.7695L228.292 48.0615L215.275 61.0781L215.983 61.7862ZM220.99 61.7862L229 53.7759L228.292 53.0679L220.282 61.0781L220.99 61.7862ZM225.996 61.7862L229 58.7823L228.292 58.0743L225.288 61.0781L225.996 61.7862Z" fill="#B8E3E3"/>
</svg>
