<svg width="139" height="62" viewBox="0 0 139 62" fill="none" xmlns="http://www.w3.org/2000/svg">
<path opacity="0.48" fill-rule="evenodd" clip-rule="evenodd" d="M0.7086 16.7424L16.7424 0.7086L16.0338 0L0 16.0338L0.7086 16.7424ZM0.7086 11.7318L11.7318 0.7086L11.0232 0L0 11.0232L0.7086 11.7318ZM0.7086 6.72127L6.72127 0.7086L6.01267 0L0 6.01267L0.7086 6.72127ZM6.72127 15.7403L21.753 0.7086L21.0444 0L6.01267 15.0317L5.01056 16.0338L0 21.0444L0.7086 21.753L5.71916 16.7424L6.72127 15.7403ZM11.7318 15.7403L26.7635 0.7086L26.0549 0L11.0232 15.0317L10.0211 16.0338L0 26.0549L0.7086 26.7635L10.7297 16.7424L11.7318 15.7403ZM16.7424 15.7403L31.7741 0.7086L31.0655 0L16.0338 15.0317L15.0317 16.0338L0 31.0655L0.7086 31.7741L15.7403 16.7424L16.7424 15.7403ZM21.753 15.7403L36.7846 0.7086L36.076 0L21.0444 15.0317L20.0422 16.0338L6.01267 30.0634L5.01056 31.0655L0 36.076L0.7086 36.7846L5.71916 31.7741L6.72127 30.772L20.7508 16.7424L21.753 15.7403ZM26.7635 15.7403L41.7952 0.7086L41.0866 0L26.0549 15.0317L25.0528 16.0338L11.0232 30.0634L10.0211 31.0655L0 41.0866L0.7086 41.7952L10.7297 31.7741L11.7318 30.772L25.7614 16.7424L26.7635 15.7403ZM31.7741 15.7403L46.8058 0.7086L46.0972 0L31.0655 15.0317L30.0634 16.0338L16.0338 30.0634L15.0317 31.0655L0 46.0972L0.7086 46.8058L15.7403 31.7741L16.7424 30.772L30.772 16.7424L31.7741 15.7403ZM36.7846 15.7403L45.8036 6.72127L48.81 3.71494L51.8163 0.7086L51.1077 0L48.1014 3.00634L45.095 6.01267L36.076 15.0317L35.0739 16.0338L21.0444 30.0634L20.0422 31.0655L6.01267 45.095L5.01056 46.0972L0 51.1077L0.7086 51.8163L5.71916 46.8058L6.72127 45.8036L20.7508 31.7741L21.753 30.772L35.7825 16.7424L36.7846 15.7403ZM41.7952 15.7403L45.8036 11.7318L48.81 8.7255L56.8269 0.7086L56.1183 0L48.1014 8.0169L45.095 11.0232L41.0866 15.0317L40.0845 16.0338L26.0549 30.0634L25.0528 31.0655L11.0232 45.095L10.0211 46.0972L0 56.1183L0.7086 56.8269L10.7297 46.8058L11.7318 45.8036L25.7614 31.7741L26.7635 30.772L40.7931 16.7424L41.7952 15.7403ZM46.8058 15.7403L48.81 13.7361L61.8374 0.7086L61.1288 0L48.1014 13.0275L46.0972 15.0317L45.095 16.0338L31.0655 30.0634L30.0634 31.0655L16.0338 45.095L15.0317 46.0972L0 61.1288L0.7086 61.8374L15.7403 46.8058L16.7424 45.8036L30.772 31.7741L31.7741 30.772L45.8036 16.7424L46.8058 15.7403ZM35.7825 31.7741L36.7846 30.772L45.8036 21.753L48.81 18.7466L50.8142 16.7424L51.8163 15.7403L66.848 0.7086L66.1394 0L51.1077 15.0317L50.1056 16.0338L48.1014 18.038L45.095 21.0444L36.076 30.0634L35.0739 31.0655L21.0444 45.095L20.0422 46.0972L5.01056 61.1288L5.71916 61.8374L20.7508 46.8058L21.753 45.8036L35.7825 31.7741ZM40.7931 31.7741L41.7952 30.772L45.8036 26.7635L48.81 23.7572L55.8248 16.7424L56.8269 15.7403L71.8586 0.7086L71.15 0L56.1183 15.0317L55.1162 16.0338L48.1014 23.0486L45.095 26.0549L41.0866 30.0634L40.0845 31.0655L26.0549 45.095L25.0528 46.0972L10.0211 61.1288L10.7297 61.8374L25.7614 46.8058L26.7635 45.8036L40.7931 31.7741ZM45.8036 31.7741L46.8058 30.772L48.81 28.7677L60.8353 16.7424L61.8374 15.7403L76.8691 0.7086L76.1605 0L61.1288 15.0317L60.1267 16.0338L48.1014 28.0591L46.0972 30.0634L45.095 31.0655L31.0655 45.095L30.0634 46.0972L15.0317 61.1288L15.7403 61.8374L30.772 46.8058L31.7741 45.8036L45.8036 31.7741ZM36.7846 45.8036L35.7825 46.8058L20.7508 61.8374L20.0422 61.1288L35.0739 46.0972L36.076 45.095L45.095 36.076L48.1014 33.0697L50.1056 31.0655L51.1077 30.0634L65.1373 16.0338L66.1394 15.0317L81.1711 0L81.8797 0.7086L66.848 15.7403L65.8459 16.7424L51.8163 30.772L50.8142 31.7741L48.81 33.7783L45.8036 36.7846L36.7846 45.8036ZM41.7952 45.8036L40.7931 46.8058L25.7614 61.8374L25.0528 61.1288L40.0845 46.0972L41.0866 45.095L45.095 41.0866L48.1014 38.0803L55.1162 31.0655L56.1183 30.0634L70.1478 16.0338L71.15 15.0317L86.1816 0L86.8902 0.7086L71.8586 15.7403L70.8565 16.7424L56.8269 30.772L55.8248 31.7741L48.81 38.7889L45.8036 41.7952L41.7952 45.8036ZM46.8058 45.8036L45.8036 46.8058L30.772 61.8374L30.0634 61.1288L45.095 46.0972L46.0972 45.095L48.1014 43.0908L60.1267 31.0655L61.1288 30.0634L75.1584 16.0338L76.1605 15.0317L91.1922 0L91.9008 0.7086L76.8691 15.7403L75.867 16.7424L61.8374 30.772L60.8353 31.7741L48.81 43.7994L46.8058 45.8036ZM45.8036 51.8163L48.81 48.81L50.8142 46.8058L51.8163 45.8036L65.8459 31.7741L66.848 30.772L80.8776 16.7424L81.8797 15.7403L90.8987 6.72127L93.905 3.71494L96.9114 0.7086L96.2028 0L93.1964 3.00634L90.1901 6.01267L81.1711 15.0317L80.169 16.0338L66.1394 30.0634L65.1373 31.0655L51.1077 45.095L50.1056 46.0972L48.1014 48.1014L45.095 51.1077L35.0739 61.1288L35.7825 61.8374L45.8036 51.8163ZM45.8036 56.8269L48.81 53.8205L55.8248 46.8058L56.8269 45.8036L70.8565 31.7741L71.8586 30.772L85.8881 16.7424L86.8902 15.7403L90.8987 11.7318L93.905 8.7255L101.922 0.7086L101.213 0L93.1964 8.0169L90.1901 11.0232L86.1816 15.0317L85.1795 16.0338L71.15 30.0634L70.1478 31.0655L56.1183 45.095L55.1162 46.0972L48.1014 53.1119L45.095 56.1183L40.0845 61.1288L40.7931 61.8374L45.8036 56.8269ZM45.8036 61.8374L48.81 58.8311L60.8353 46.8058L61.8374 45.8036L75.867 31.7741L76.8691 30.772L90.8987 16.7424L91.9008 15.7403L93.905 13.7361L106.932 0.7086L106.224 0L93.1964 13.0275L91.1922 15.0317L90.1901 16.0338L76.1605 30.0634L75.1584 31.0655L61.1288 45.095L60.1267 46.0972L48.1014 58.1225L45.095 61.1288L45.8036 61.8374ZM80.8776 31.7741L81.8797 30.772L90.8987 21.753L93.905 18.7466L95.9093 16.7424L96.9114 15.7403L111.943 0.7086L111.234 0L96.2028 15.0317L95.2007 16.0338L93.1964 18.038L90.1901 21.0444L81.1711 30.0634L80.169 31.0655L66.1394 45.095L65.1373 46.0972L50.1056 61.1288L50.8142 61.8374L65.8459 46.8058L66.848 45.8036L80.8776 31.7741ZM85.8881 31.7741L86.8902 30.772L90.8987 26.7635L93.905 23.7572L100.92 16.7424L101.922 15.7403L116.954 0.7086L116.245 0L101.213 15.0317L100.211 16.0338L93.1964 23.0486L90.1901 26.0549L86.1816 30.0634L85.1795 31.0655L71.15 45.095L70.1478 46.0972L55.1162 61.1288L55.8248 61.8374L70.8565 46.8058L71.8586 45.8036L85.8881 31.7741ZM90.8987 31.7741L91.9008 30.772L93.905 28.7677L105.93 16.7424L106.932 15.7403L121.964 0.7086L121.256 0L106.224 15.0317L105.222 16.0338L93.1964 28.0591L91.1922 30.0634L90.1901 31.0655L76.1605 45.095L75.1584 46.0972L60.1267 61.1288L60.8353 61.8374L75.867 46.8058L76.8691 45.8036L90.8987 31.7741ZM81.8797 45.8036L80.8776 46.8058L65.8459 61.8374L65.1373 61.1288L80.169 46.0972L81.1711 45.095L90.1901 36.076L93.1964 33.0697L95.2007 31.0655L96.2028 30.0634L110.232 16.0338L111.234 15.0317L126.266 0L126.975 0.7086L111.943 15.7403L110.941 16.7424L96.9114 30.772L95.9093 31.7741L93.905 33.7783L90.8987 36.7846L81.8797 45.8036ZM86.8902 45.8036L85.8881 46.8058L70.8565 61.8374L70.1478 61.1288L85.1795 46.0972L86.1816 45.095L90.1901 41.0866L93.1964 38.0803L100.211 31.0655L101.213 30.0634L115.243 16.0338L116.245 15.0317L131.277 0L131.985 0.7086L116.954 15.7403L115.951 16.7424L101.922 30.772L100.92 31.7741L93.905 38.7889L90.8987 41.7952L86.8902 45.8036ZM91.9008 45.8036L90.8987 46.8058L75.867 61.8374L75.1584 61.1288L90.1901 46.0972L91.1922 45.095L93.1964 43.0908L105.222 31.0655L106.224 30.0634L120.253 16.0338L121.256 15.0317L136.287 0L136.996 0.7086L121.964 15.7403L120.962 16.7424L106.932 30.772L105.93 31.7741L93.905 43.7994L91.9008 45.8036ZM90.8987 51.8163L93.905 48.81L95.9093 46.8058L96.9114 45.8036L110.941 31.7741L111.943 30.772L125.973 16.7424L126.975 15.7403L139 3.71494L138.291 3.00634L126.266 15.0317L125.264 16.0338L111.234 30.0634L110.232 31.0655L96.2028 45.095L95.2007 46.0972L93.1964 48.1014L90.1901 51.1077L80.169 61.1288L80.8776 61.8374L90.8987 51.8163ZM90.8987 56.8269L93.905 53.8205L100.92 46.8058L101.922 45.8036L115.951 31.7741L116.954 30.772L130.983 16.7424L131.985 15.7403L139 8.7255L138.291 8.0169L131.277 15.0317L130.275 16.0338L116.245 30.0634L115.243 31.0655L101.213 45.095L100.211 46.0972L93.1964 53.1119L90.1901 56.1183L85.1795 61.1288L85.8881 61.8374L90.8987 56.8269ZM90.8987 61.8374L93.905 58.8311L105.93 46.8058L106.932 45.8036L120.962 31.7741L121.964 30.772L135.994 16.7424L136.996 15.7403L139 13.7361L138.291 13.0275L136.287 15.0317L135.285 16.0338L121.256 30.0634L120.253 31.0655L106.224 45.095L105.222 46.0972L93.1964 58.1225L90.1901 61.1288L90.8987 61.8374ZM125.973 31.7741L126.975 30.772L139 18.7466L138.291 18.038L126.266 30.0634L125.264 31.0655L111.234 45.095L110.232 46.0972L95.2007 61.1288L95.9093 61.8374L110.941 46.8058L111.943 45.8036L125.973 31.7741ZM130.983 31.7741L131.985 30.772L139 23.7572L138.291 23.0486L131.277 30.0634L130.275 31.0655L116.245 45.095L115.243 46.0972L100.211 61.1288L100.92 61.8374L115.951 46.8058L116.954 45.8036L130.983 31.7741ZM135.994 31.7741L136.996 30.772L139 28.7677L138.291 28.0591L136.287 30.0634L135.285 31.0655L121.256 45.095L120.253 46.0972L105.222 61.1288L105.93 61.8374L120.962 46.8058L121.964 45.8036L135.994 31.7741ZM126.975 45.8036L125.973 46.8058L110.941 61.8374L110.232 61.1288L125.264 46.0972L126.266 45.095L138.291 33.0697L139 33.7783L126.975 45.8036ZM131.985 45.8036L130.983 46.8058L115.951 61.8374L115.243 61.1288L130.275 46.0972L131.277 45.095L138.291 38.0803L139 38.7889L131.985 45.8036ZM136.996 45.8036L135.994 46.8058L120.962 61.8374L120.253 61.1288L135.285 46.0972L136.287 45.095L138.291 43.0908L139 43.7994L136.996 45.8036ZM125.973 61.8374L139 48.81L138.291 48.1014L125.264 61.1288L125.973 61.8374ZM130.983 61.8374L139 53.8205L138.291 53.1119L130.275 61.1288L130.983 61.8374ZM135.994 61.8374L139 58.8311L138.291 58.1225L135.285 61.1288L135.994 61.8374Z" fill="#CECBCB"/>
</svg>
