<svg width="146" height="1662" viewBox="0 0 146 1662" fill="none" xmlns="http://www.w3.org/2000/svg">
<g clip-path="url(#clip0_1_29696)">
<rect width="146" height="1662" fill="black" fill-opacity="0.04"/>
<g opacity="0.08">
<path d="M-18 16L-2 0M-13 16L3 0M-8 16L8 0M-18 11L-7 0M-18 6L-12 0M-3 16L13 0M2 16L18 0M7 16L23 0M12 16L28 0M17 16L30 3M22 16L30 8M27 16L30 13" stroke="black"/>
<path d="M27 16L43 0M32 16L48 0M37 16L53 0M27 11L38 0M27 6L33 0M42 16L58 0M47 16L63 0M52 16L68 0M57 16L73 0M62 16L75 3M67 16L75 8M72 16L75 13" stroke="black"/>
<path d="M72 16L88 0M77 16L93 0M82 16L98 0M72 11L83 0M72 6L78 0M87 16L103 0M92 16L108 0M97 16L113 0M102 16L118 0M107 16L120 3M112 16L120 8M117 16L120 13" stroke="black"/>
<path d="M117 16L133 0M122 16L138 0M127 16L143 0M117 11L128 0M117 6L123 0M132 16L148 0M137 16L153 0M142 16L158 0M147 16L163 0M152 16L165 3M157 16L165 8M162 16L165 13" stroke="black"/>
<path d="M-18 31L-2 15M-13 31L3 15M-8 31L8 15M-18 26L-7 15M-18 21L-12 15M-3 31L13 15M2 31L18 15M7 31L23 15M12 31L28 15M17 31L30 18M22 31L30 23M27 31L30 28" stroke="black"/>
<path d="M27 31L43 15M32 31L48 15M37 31L53 15M27 26L38 15M27 21L33 15M42 31L58 15M47 31L63 15M52 31L68 15M57 31L73 15M62 31L75 18M67 31L75 23M72 31L75 28" stroke="black"/>
<path d="M72 31L88 15M77 31L93 15M82 31L98 15M72 26L83 15M72 21L78 15M87 31L103 15M92 31L108 15M97 31L113 15M102 31L118 15M107 31L120 18M112 31L120 23M117 31L120 28" stroke="black"/>
<path d="M117 31L133 15M122 31L138 15M127 31L143 15M117 26L128 15M117 21L123 15M132 31L148 15M137 31L153 15M142 31L158 15M147 31L163 15M152 31L165 18M157 31L165 23M162 31L165 28" stroke="black"/>
<path d="M-18 46L-2 30M-13 46L3 30M-8 46L8 30M-18 41L-7 30M-18 36L-12 30M-3 46L13 30M2 46L18 30M7 46L23 30M12 46L28 30M17 46L30 33M22 46L30 38M27 46L30 43" stroke="black"/>
<path d="M27 46L43 30M32 46L48 30M37 46L53 30M27 41L38 30M27 36L33 30M42 46L58 30M47 46L63 30M52 46L68 30M57 46L73 30M62 46L75 33M67 46L75 38M72 46L75 43" stroke="black"/>
<path d="M72 46L88 30M77 46L93 30M82 46L98 30M72 41L83 30M72 36L78 30M87 46L103 30M92 46L108 30M97 46L113 30M102 46L118 30M107 46L120 33M112 46L120 38M117 46L120 43" stroke="black"/>
<path d="M117 46L133 30M122 46L138 30M127 46L143 30M117 41L128 30M117 36L123 30M132 46L148 30M137 46L153 30M142 46L158 30M147 46L163 30M152 46L165 33M157 46L165 38M162 46L165 43" stroke="black"/>
<path d="M-18 61L-2 45M-13 61L3 45M-8 61L8 45M-18 56L-7 45M-18 51L-12 45M-3 61L13 45M2 61L18 45M7 61L23 45M12 61L28 45M17 61L30 48M22 61L30 53M27 61L30 58" stroke="black"/>
<path d="M27 61L43 45M32 61L48 45M37 61L53 45M27 56L38 45M27 51L33 45M42 61L58 45M47 61L63 45M52 61L68 45M57 61L73 45M62 61L75 48M67 61L75 53M72 61L75 58" stroke="black"/>
<path d="M72 61L88 45M77 61L93 45M82 61L98 45M72 56L83 45M72 51L78 45M87 61L103 45M92 61L108 45M97 61L113 45M102 61L118 45M107 61L120 48M112 61L120 53M117 61L120 58" stroke="black"/>
<path d="M117 61L133 45M122 61L138 45M127 61L143 45M117 56L128 45M117 51L123 45M132 61L148 45M137 61L153 45M142 61L158 45M147 61L163 45M152 61L165 48M157 61L165 53M162 61L165 58" stroke="black"/>
<path d="M-18 76L-2 60M-13 76L3 60M-8 76L8 60M-18 71L-7 60M-18 66L-12 60M-3 76L13 60M2 76L18 60M7 76L23 60M12 76L28 60M17 76L30 63M22 76L30 68M27 76L30 73" stroke="black"/>
<path d="M27 76L43 60M32 76L48 60M37 76L53 60M27 71L38 60M27 66L33 60M42 76L58 60M47 76L63 60M52 76L68 60M57 76L73 60M62 76L75 63M67 76L75 68M72 76L75 73" stroke="black"/>
<path d="M72 76L88 60M77 76L93 60M82 76L98 60M72 71L83 60M72 66L78 60M87 76L103 60M92 76L108 60M97 76L113 60M102 76L118 60M107 76L120 63M112 76L120 68M117 76L120 73" stroke="black"/>
<path d="M117 76L133 60M122 76L138 60M127 76L143 60M117 71L128 60M117 66L123 60M132 76L148 60M137 76L153 60M142 76L158 60M147 76L163 60M152 76L165 63M157 76L165 68M162 76L165 73" stroke="black"/>
<path d="M-18 91L-2 75M-13 91L3 75M-8 91L8 75M-18 86L-7 75M-18 81L-12 75M-3 91L13 75M2 91L18 75M7 91L23 75M12 91L28 75M17 91L30 78M22 91L30 83M27 91L30 88" stroke="black"/>
<path d="M27 91L43 75M32 91L48 75M37 91L53 75M27 86L38 75M27 81L33 75M42 91L58 75M47 91L63 75M52 91L68 75M57 91L73 75M62 91L75 78M67 91L75 83M72 91L75 88" stroke="black"/>
<path d="M72 91L88 75M77 91L93 75M82 91L98 75M72 86L83 75M72 81L78 75M87 91L103 75M92 91L108 75M97 91L113 75M102 91L118 75M107 91L120 78M112 91L120 83M117 91L120 88" stroke="black"/>
<path d="M117 91L133 75M122 91L138 75M127 91L143 75M117 86L128 75M117 81L123 75M132 91L148 75M137 91L153 75M142 91L158 75M147 91L163 75M152 91L165 78M157 91L165 83M162 91L165 88" stroke="black"/>
<path d="M-18 106L-2 90M-13 106L3 90M-8 106L8 90M-18 101L-7 90M-18 96L-12 90M-3 106L13 90M2 106L18 90M7 106L23 90M12 106L28 90M17 106L30 93M22 106L30 98M27 106L30 103" stroke="black"/>
<path d="M27 106L43 90M32 106L48 90M37 106L53 90M27 101L38 90M27 96L33 90M42 106L58 90M47 106L63 90M52 106L68 90M57 106L73 90M62 106L75 93M67 106L75 98M72 106L75 103" stroke="black"/>
<path d="M72 106L88 90M77 106L93 90M82 106L98 90M72 101L83 90M72 96L78 90M87 106L103 90M92 106L108 90M97 106L113 90M102 106L118 90M107 106L120 93M112 106L120 98M117 106L120 103" stroke="black"/>
<path d="M117 106L133 90M122 106L138 90M127 106L143 90M117 101L128 90M117 96L123 90M132 106L148 90M137 106L153 90M142 106L158 90M147 106L163 90M152 106L165 93M157 106L165 98M162 106L165 103" stroke="black"/>
<path d="M-18 121L-2 105M-13 121L3 105M-8 121L8 105M-18 116L-7 105M-18 111L-12 105M-3 121L13 105M2 121L18 105M7 121L23 105M12 121L28 105M17 121L30 108M22 121L30 113M27 121L30 118" stroke="black"/>
<path d="M27 121L43 105M32 121L48 105M37 121L53 105M27 116L38 105M27 111L33 105M42 121L58 105M47 121L63 105M52 121L68 105M57 121L73 105M62 121L75 108M67 121L75 113M72 121L75 118" stroke="black"/>
<path d="M72 121L88 105M77 121L93 105M82 121L98 105M72 116L83 105M72 111L78 105M87 121L103 105M92 121L108 105M97 121L113 105M102 121L118 105M107 121L120 108M112 121L120 113M117 121L120 118" stroke="black"/>
<path d="M117 121L133 105M122 121L138 105M127 121L143 105M117 116L128 105M117 111L123 105M132 121L148 105M137 121L153 105M142 121L158 105M147 121L163 105M152 121L165 108M157 121L165 113M162 121L165 118" stroke="black"/>
<path d="M-18 136L-2 120M-13 136L3 120M-8 136L8 120M-18 131L-7 120M-18 126L-12 120M-3 136L13 120M2 136L18 120M7 136L23 120M12 136L28 120M17 136L30 123M22 136L30 128M27 136L30 133" stroke="black"/>
<path d="M27 136L43 120M32 136L48 120M37 136L53 120M27 131L38 120M27 126L33 120M42 136L58 120M47 136L63 120M52 136L68 120M57 136L73 120M62 136L75 123M67 136L75 128M72 136L75 133" stroke="black"/>
<path d="M72 136L88 120M77 136L93 120M82 136L98 120M72 131L83 120M72 126L78 120M87 136L103 120M92 136L108 120M97 136L113 120M102 136L118 120M107 136L120 123M112 136L120 128M117 136L120 133" stroke="black"/>
<path d="M117 136L133 120M122 136L138 120M127 136L143 120M117 131L128 120M117 126L123 120M132 136L148 120M137 136L153 120M142 136L158 120M147 136L163 120M152 136L165 123M157 136L165 128M162 136L165 133" stroke="black"/>
<path d="M-18 151L-2 135M-13 151L3 135M-8 151L8 135M-18 146L-7 135M-18 141L-12 135M-3 151L13 135M2 151L18 135M7 151L23 135M12 151L28 135M17 151L30 138M22 151L30 143M27 151L30 148" stroke="black"/>
<path d="M27 151L43 135M32 151L48 135M37 151L53 135M27 146L38 135M27 141L33 135M42 151L58 135M47 151L63 135M52 151L68 135M57 151L73 135M62 151L75 138M67 151L75 143M72 151L75 148" stroke="black"/>
<path d="M72 151L88 135M77 151L93 135M82 151L98 135M72 146L83 135M72 141L78 135M87 151L103 135M92 151L108 135M97 151L113 135M102 151L118 135M107 151L120 138M112 151L120 143M117 151L120 148" stroke="black"/>
<path d="M117 151L133 135M122 151L138 135M127 151L143 135M117 146L128 135M117 141L123 135M132 151L148 135M137 151L153 135M142 151L158 135M147 151L163 135M152 151L165 138M157 151L165 143M162 151L165 148" stroke="black"/>
<path d="M-18 166L-2 150M-13 166L3 150M-8 166L8 150M-18 161L-7 150M-18 156L-12 150M-3 166L13 150M2 166L18 150M7 166L23 150M12 166L28 150M17 166L30 153M22 166L30 158M27 166L30 163" stroke="black"/>
<path d="M27 166L43 150M32 166L48 150M37 166L53 150M27 161L38 150M27 156L33 150M42 166L58 150M47 166L63 150M52 166L68 150M57 166L73 150M62 166L75 153M67 166L75 158M72 166L75 163" stroke="black"/>
<path d="M72 166L88 150M77 166L93 150M82 166L98 150M72 161L83 150M72 156L78 150M87 166L103 150M92 166L108 150M97 166L113 150M102 166L118 150M107 166L120 153M112 166L120 158M117 166L120 163" stroke="black"/>
<path d="M117 166L133 150M122 166L138 150M127 166L143 150M117 161L128 150M117 156L123 150M132 166L148 150M137 166L153 150M142 166L158 150M147 166L163 150M152 166L165 153M157 166L165 158M162 166L165 163" stroke="black"/>
<path d="M-18 181L-2 165M-13 181L3 165M-8 181L8 165M-18 176L-7 165M-18 171L-12 165M-3 181L13 165M2 181L18 165M7 181L23 165M12 181L28 165M17 181L30 168M22 181L30 173M27 181L30 178" stroke="black"/>
<path d="M27 181L43 165M32 181L48 165M37 181L53 165M27 176L38 165M27 171L33 165M42 181L58 165M47 181L63 165M52 181L68 165M57 181L73 165M62 181L75 168M67 181L75 173M72 181L75 178" stroke="black"/>
<path d="M72 181L88 165M77 181L93 165M82 181L98 165M72 176L83 165M72 171L78 165M87 181L103 165M92 181L108 165M97 181L113 165M102 181L118 165M107 181L120 168M112 181L120 173M117 181L120 178" stroke="black"/>
<path d="M117 181L133 165M122 181L138 165M127 181L143 165M117 176L128 165M117 171L123 165M132 181L148 165M137 181L153 165M142 181L158 165M147 181L163 165M152 181L165 168M157 181L165 173M162 181L165 178" stroke="black"/>
<path d="M-18 196L-2 180M-13 196L3 180M-8 196L8 180M-18 191L-7 180M-18 186L-12 180M-3 196L13 180M2 196L18 180M7 196L23 180M12 196L28 180M17 196L30 183M22 196L30 188M27 196L30 193" stroke="black"/>
<path d="M27 196L43 180M32 196L48 180M37 196L53 180M27 191L38 180M27 186L33 180M42 196L58 180M47 196L63 180M52 196L68 180M57 196L73 180M62 196L75 183M67 196L75 188M72 196L75 193" stroke="black"/>
<path d="M72 196L88 180M77 196L93 180M82 196L98 180M72 191L83 180M72 186L78 180M87 196L103 180M92 196L108 180M97 196L113 180M102 196L118 180M107 196L120 183M112 196L120 188M117 196L120 193" stroke="black"/>
<path d="M117 196L133 180M122 196L138 180M127 196L143 180M117 191L128 180M117 186L123 180M132 196L148 180M137 196L153 180M142 196L158 180M147 196L163 180M152 196L165 183M157 196L165 188M162 196L165 193" stroke="black"/>
<path d="M-18 211L-2 195M-13 211L3 195M-8 211L8 195M-18 206L-7 195M-18 201L-12 195M-3 211L13 195M2 211L18 195M7 211L23 195M12 211L28 195M17 211L30 198M22 211L30 203M27 211L30 208" stroke="black"/>
<path d="M27 211L43 195M32 211L48 195M37 211L53 195M27 206L38 195M27 201L33 195M42 211L58 195M47 211L63 195M52 211L68 195M57 211L73 195M62 211L75 198M67 211L75 203M72 211L75 208" stroke="black"/>
<path d="M72 211L88 195M77 211L93 195M82 211L98 195M72 206L83 195M72 201L78 195M87 211L103 195M92 211L108 195M97 211L113 195M102 211L118 195M107 211L120 198M112 211L120 203M117 211L120 208" stroke="black"/>
<path d="M117 211L133 195M122 211L138 195M127 211L143 195M117 206L128 195M117 201L123 195M132 211L148 195M137 211L153 195M142 211L158 195M147 211L163 195M152 211L165 198M157 211L165 203M162 211L165 208" stroke="black"/>
<path d="M-18 226L-2 210M-13 226L3 210M-8 226L8 210M-18 221L-7 210M-18 216L-12 210M-3 226L13 210M2 226L18 210M7 226L23 210M12 226L28 210M17 226L30 213M22 226L30 218M27 226L30 223" stroke="black"/>
<path d="M27 226L43 210M32 226L48 210M37 226L53 210M27 221L38 210M27 216L33 210M42 226L58 210M47 226L63 210M52 226L68 210M57 226L73 210M62 226L75 213M67 226L75 218M72 226L75 223" stroke="black"/>
<path d="M72 226L88 210M77 226L93 210M82 226L98 210M72 221L83 210M72 216L78 210M87 226L103 210M92 226L108 210M97 226L113 210M102 226L118 210M107 226L120 213M112 226L120 218M117 226L120 223" stroke="black"/>
<path d="M117 226L133 210M122 226L138 210M127 226L143 210M117 221L128 210M117 216L123 210M132 226L148 210M137 226L153 210M142 226L158 210M147 226L163 210M152 226L165 213M157 226L165 218M162 226L165 223" stroke="black"/>
<path d="M-18 241L-2 225M-13 241L3 225M-8 241L8 225M-18 236L-7 225M-18 231L-12 225M-3 241L13 225M2 241L18 225M7 241L23 225M12 241L28 225M17 241L30 228M22 241L30 233M27 241L30 238" stroke="black"/>
<path d="M27 241L43 225M32 241L48 225M37 241L53 225M27 236L38 225M27 231L33 225M42 241L58 225M47 241L63 225M52 241L68 225M57 241L73 225M62 241L75 228M67 241L75 233M72 241L75 238" stroke="black"/>
<path d="M72 241L88 225M77 241L93 225M82 241L98 225M72 236L83 225M72 231L78 225M87 241L103 225M92 241L108 225M97 241L113 225M102 241L118 225M107 241L120 228M112 241L120 233M117 241L120 238" stroke="black"/>
<path d="M117 241L133 225M122 241L138 225M127 241L143 225M117 236L128 225M117 231L123 225M132 241L148 225M137 241L153 225M142 241L158 225M147 241L163 225M152 241L165 228M157 241L165 233M162 241L165 238" stroke="black"/>
<path d="M-18 256L-2 240M-13 256L3 240M-8 256L8 240M-18 251L-7 240M-18 246L-12 240M-3 256L13 240M2 256L18 240M7 256L23 240M12 256L28 240M17 256L30 243M22 256L30 248M27 256L30 253" stroke="black"/>
<path d="M27 256L43 240M32 256L48 240M37 256L53 240M27 251L38 240M27 246L33 240M42 256L58 240M47 256L63 240M52 256L68 240M57 256L73 240M62 256L75 243M67 256L75 248M72 256L75 253" stroke="black"/>
<path d="M72 256L88 240M77 256L93 240M82 256L98 240M72 251L83 240M72 246L78 240M87 256L103 240M92 256L108 240M97 256L113 240M102 256L118 240M107 256L120 243M112 256L120 248M117 256L120 253" stroke="black"/>
<path d="M117 256L133 240M122 256L138 240M127 256L143 240M117 251L128 240M117 246L123 240M132 256L148 240M137 256L153 240M142 256L158 240M147 256L163 240M152 256L165 243M157 256L165 248M162 256L165 253" stroke="black"/>
<path d="M-18 271L-2 255M-13 271L3 255M-8 271L8 255M-18 266L-7 255M-18 261L-12 255M-3 271L13 255M2 271L18 255M7 271L23 255M12 271L28 255M17 271L30 258M22 271L30 263M27 271L30 268" stroke="black"/>
<path d="M27 271L43 255M32 271L48 255M37 271L53 255M27 266L38 255M27 261L33 255M42 271L58 255M47 271L63 255M52 271L68 255M57 271L73 255M62 271L75 258M67 271L75 263M72 271L75 268" stroke="black"/>
<path d="M72 271L88 255M77 271L93 255M82 271L98 255M72 266L83 255M72 261L78 255M87 271L103 255M92 271L108 255M97 271L113 255M102 271L118 255M107 271L120 258M112 271L120 263M117 271L120 268" stroke="black"/>
<path d="M117 271L133 255M122 271L138 255M127 271L143 255M117 266L128 255M117 261L123 255M132 271L148 255M137 271L153 255M142 271L158 255M147 271L163 255M152 271L165 258M157 271L165 263M162 271L165 268" stroke="black"/>
<path d="M-18 286L-2 270M-13 286L3 270M-8 286L8 270M-18 281L-7 270M-18 276L-12 270M-3 286L13 270M2 286L18 270M7 286L23 270M12 286L28 270M17 286L30 273M22 286L30 278M27 286L30 283" stroke="black"/>
<path d="M27 286L43 270M32 286L48 270M37 286L53 270M27 281L38 270M27 276L33 270M42 286L58 270M47 286L63 270M52 286L68 270M57 286L73 270M62 286L75 273M67 286L75 278M72 286L75 283" stroke="black"/>
<path d="M72 286L88 270M77 286L93 270M82 286L98 270M72 281L83 270M72 276L78 270M87 286L103 270M92 286L108 270M97 286L113 270M102 286L118 270M107 286L120 273M112 286L120 278M117 286L120 283" stroke="black"/>
<path d="M117 286L133 270M122 286L138 270M127 286L143 270M117 281L128 270M117 276L123 270M132 286L148 270M137 286L153 270M142 286L158 270M147 286L163 270M152 286L165 273M157 286L165 278M162 286L165 283" stroke="black"/>
<path d="M-18 301L-2 285M-13 301L3 285M-8 301L8 285M-18 296L-7 285M-18 291L-12 285M-3 301L13 285M2 301L18 285M7 301L23 285M12 301L28 285M17 301L30 288M22 301L30 293M27 301L30 298" stroke="black"/>
<path d="M27 301L43 285M32 301L48 285M37 301L53 285M27 296L38 285M27 291L33 285M42 301L58 285M47 301L63 285M52 301L68 285M57 301L73 285M62 301L75 288M67 301L75 293M72 301L75 298" stroke="black"/>
<path d="M72 301L88 285M77 301L93 285M82 301L98 285M72 296L83 285M72 291L78 285M87 301L103 285M92 301L108 285M97 301L113 285M102 301L118 285M107 301L120 288M112 301L120 293M117 301L120 298" stroke="black"/>
<path d="M117 301L133 285M122 301L138 285M127 301L143 285M117 296L128 285M117 291L123 285M132 301L148 285M137 301L153 285M142 301L158 285M147 301L163 285M152 301L165 288M157 301L165 293M162 301L165 298" stroke="black"/>
<path d="M-18 316L-2 300M-13 316L3 300M-8 316L8 300M-18 311L-7 300M-18 306L-12 300M-3 316L13 300M2 316L18 300M7 316L23 300M12 316L28 300M17 316L30 303M22 316L30 308M27 316L30 313" stroke="black"/>
<path d="M27 316L43 300M32 316L48 300M37 316L53 300M27 311L38 300M27 306L33 300M42 316L58 300M47 316L63 300M52 316L68 300M57 316L73 300M62 316L75 303M67 316L75 308M72 316L75 313" stroke="black"/>
<path d="M72 316L88 300M77 316L93 300M82 316L98 300M72 311L83 300M72 306L78 300M87 316L103 300M92 316L108 300M97 316L113 300M102 316L118 300M107 316L120 303M112 316L120 308M117 316L120 313" stroke="black"/>
<path d="M117 316L133 300M122 316L138 300M127 316L143 300M117 311L128 300M117 306L123 300M132 316L148 300M137 316L153 300M142 316L158 300M147 316L163 300M152 316L165 303M157 316L165 308M162 316L165 313" stroke="black"/>
<path d="M-18 331L-2 315M-13 331L3 315M-8 331L8 315M-18 326L-7 315M-18 321L-12 315M-3 331L13 315M2 331L18 315M7 331L23 315M12 331L28 315M17 331L30 318M22 331L30 323M27 331L30 328" stroke="black"/>
<path d="M27 331L43 315M32 331L48 315M37 331L53 315M27 326L38 315M27 321L33 315M42 331L58 315M47 331L63 315M52 331L68 315M57 331L73 315M62 331L75 318M67 331L75 323M72 331L75 328" stroke="black"/>
<path d="M72 331L88 315M77 331L93 315M82 331L98 315M72 326L83 315M72 321L78 315M87 331L103 315M92 331L108 315M97 331L113 315M102 331L118 315M107 331L120 318M112 331L120 323M117 331L120 328" stroke="black"/>
<path d="M117 331L133 315M122 331L138 315M127 331L143 315M117 326L128 315M117 321L123 315M132 331L148 315M137 331L153 315M142 331L158 315M147 331L163 315M152 331L165 318M157 331L165 323M162 331L165 328" stroke="black"/>
<path d="M-18 346L-2 330M-13 346L3 330M-8 346L8 330M-18 341L-7 330M-18 336L-12 330M-3 346L13 330M2 346L18 330M7 346L23 330M12 346L28 330M17 346L30 333M22 346L30 338M27 346L30 343" stroke="black"/>
<path d="M27 346L43 330M32 346L48 330M37 346L53 330M27 341L38 330M27 336L33 330M42 346L58 330M47 346L63 330M52 346L68 330M57 346L73 330M62 346L75 333M67 346L75 338M72 346L75 343" stroke="black"/>
<path d="M72 346L88 330M77 346L93 330M82 346L98 330M72 341L83 330M72 336L78 330M87 346L103 330M92 346L108 330M97 346L113 330M102 346L118 330M107 346L120 333M112 346L120 338M117 346L120 343" stroke="black"/>
<path d="M117 346L133 330M122 346L138 330M127 346L143 330M117 341L128 330M117 336L123 330M132 346L148 330M137 346L153 330M142 346L158 330M147 346L163 330M152 346L165 333M157 346L165 338M162 346L165 343" stroke="black"/>
<path d="M-18 361L-2 345M-13 361L3 345M-8 361L8 345M-18 356L-7 345M-18 351L-12 345M-3 361L13 345M2 361L18 345M7 361L23 345M12 361L28 345M17 361L30 348M22 361L30 353M27 361L30 358" stroke="black"/>
<path d="M27 361L43 345M32 361L48 345M37 361L53 345M27 356L38 345M27 351L33 345M42 361L58 345M47 361L63 345M52 361L68 345M57 361L73 345M62 361L75 348M67 361L75 353M72 361L75 358" stroke="black"/>
<path d="M72 361L88 345M77 361L93 345M82 361L98 345M72 356L83 345M72 351L78 345M87 361L103 345M92 361L108 345M97 361L113 345M102 361L118 345M107 361L120 348M112 361L120 353M117 361L120 358" stroke="black"/>
<path d="M117 361L133 345M122 361L138 345M127 361L143 345M117 356L128 345M117 351L123 345M132 361L148 345M137 361L153 345M142 361L158 345M147 361L163 345M152 361L165 348M157 361L165 353M162 361L165 358" stroke="black"/>
<path d="M-18 376L-2 360M-13 376L3 360M-8 376L8 360M-18 371L-7 360M-18 366L-12 360M-3 376L13 360M2 376L18 360M7 376L23 360M12 376L28 360M17 376L30 363M22 376L30 368M27 376L30 373" stroke="black"/>
<path d="M27 376L43 360M32 376L48 360M37 376L53 360M27 371L38 360M27 366L33 360M42 376L58 360M47 376L63 360M52 376L68 360M57 376L73 360M62 376L75 363M67 376L75 368M72 376L75 373" stroke="black"/>
<path d="M72 376L88 360M77 376L93 360M82 376L98 360M72 371L83 360M72 366L78 360M87 376L103 360M92 376L108 360M97 376L113 360M102 376L118 360M107 376L120 363M112 376L120 368M117 376L120 373" stroke="black"/>
<path d="M117 376L133 360M122 376L138 360M127 376L143 360M117 371L128 360M117 366L123 360M132 376L148 360M137 376L153 360M142 376L158 360M147 376L163 360M152 376L165 363M157 376L165 368M162 376L165 373" stroke="black"/>
<path d="M-18 391L-2 375M-13 391L3 375M-8 391L8 375M-18 386L-7 375M-18 381L-12 375M-3 391L13 375M2 391L18 375M7 391L23 375M12 391L28 375M17 391L30 378M22 391L30 383M27 391L30 388" stroke="black"/>
<path d="M27 391L43 375M32 391L48 375M37 391L53 375M27 386L38 375M27 381L33 375M42 391L58 375M47 391L63 375M52 391L68 375M57 391L73 375M62 391L75 378M67 391L75 383M72 391L75 388" stroke="black"/>
<path d="M72 391L88 375M77 391L93 375M82 391L98 375M72 386L83 375M72 381L78 375M87 391L103 375M92 391L108 375M97 391L113 375M102 391L118 375M107 391L120 378M112 391L120 383M117 391L120 388" stroke="black"/>
<path d="M117 391L133 375M122 391L138 375M127 391L143 375M117 386L128 375M117 381L123 375M132 391L148 375M137 391L153 375M142 391L158 375M147 391L163 375M152 391L165 378M157 391L165 383M162 391L165 388" stroke="black"/>
<path d="M-18 406L-2 390M-13 406L3 390M-8 406L8 390M-18 401L-7 390M-18 396L-12 390M-3 406L13 390M2 406L18 390M7 406L23 390M12 406L28 390M17 406L30 393M22 406L30 398M27 406L30 403" stroke="black"/>
<path d="M27 406L43 390M32 406L48 390M37 406L53 390M27 401L38 390M27 396L33 390M42 406L58 390M47 406L63 390M52 406L68 390M57 406L73 390M62 406L75 393M67 406L75 398M72 406L75 403" stroke="black"/>
<path d="M72 406L88 390M77 406L93 390M82 406L98 390M72 401L83 390M72 396L78 390M87 406L103 390M92 406L108 390M97 406L113 390M102 406L118 390M107 406L120 393M112 406L120 398M117 406L120 403" stroke="black"/>
<path d="M117 406L133 390M122 406L138 390M127 406L143 390M117 401L128 390M117 396L123 390M132 406L148 390M137 406L153 390M142 406L158 390M147 406L163 390M152 406L165 393M157 406L165 398M162 406L165 403" stroke="black"/>
<path d="M-18 421L-2 405M-13 421L3 405M-8 421L8 405M-18 416L-7 405M-18 411L-12 405M-3 421L13 405M2 421L18 405M7 421L23 405M12 421L28 405M17 421L30 408M22 421L30 413M27 421L30 418" stroke="black"/>
<path d="M27 421L43 405M32 421L48 405M37 421L53 405M27 416L38 405M27 411L33 405M42 421L58 405M47 421L63 405M52 421L68 405M57 421L73 405M62 421L75 408M67 421L75 413M72 421L75 418" stroke="black"/>
<path d="M72 421L88 405M77 421L93 405M82 421L98 405M72 416L83 405M72 411L78 405M87 421L103 405M92 421L108 405M97 421L113 405M102 421L118 405M107 421L120 408M112 421L120 413M117 421L120 418" stroke="black"/>
<path d="M117 421L133 405M122 421L138 405M127 421L143 405M117 416L128 405M117 411L123 405M132 421L148 405M137 421L153 405M142 421L158 405M147 421L163 405M152 421L165 408M157 421L165 413M162 421L165 418" stroke="black"/>
<path d="M-18 436L-2 420M-13 436L3 420M-8 436L8 420M-18 431L-7 420M-18 426L-12 420M-3 436L13 420M2 436L18 420M7 436L23 420M12 436L28 420M17 436L30 423M22 436L30 428M27 436L30 433" stroke="black"/>
<path d="M27 436L43 420M32 436L48 420M37 436L53 420M27 431L38 420M27 426L33 420M42 436L58 420M47 436L63 420M52 436L68 420M57 436L73 420M62 436L75 423M67 436L75 428M72 436L75 433" stroke="black"/>
<path d="M72 436L88 420M77 436L93 420M82 436L98 420M72 431L83 420M72 426L78 420M87 436L103 420M92 436L108 420M97 436L113 420M102 436L118 420M107 436L120 423M112 436L120 428M117 436L120 433" stroke="black"/>
<path d="M117 436L133 420M122 436L138 420M127 436L143 420M117 431L128 420M117 426L123 420M132 436L148 420M137 436L153 420M142 436L158 420M147 436L163 420M152 436L165 423M157 436L165 428M162 436L165 433" stroke="black"/>
<path d="M-18 451L-2 435M-13 451L3 435M-8 451L8 435M-18 446L-7 435M-18 441L-12 435M-3 451L13 435M2 451L18 435M7 451L23 435M12 451L28 435M17 451L30 438M22 451L30 443M27 451L30 448" stroke="black"/>
<path d="M27 451L43 435M32 451L48 435M37 451L53 435M27 446L38 435M27 441L33 435M42 451L58 435M47 451L63 435M52 451L68 435M57 451L73 435M62 451L75 438M67 451L75 443M72 451L75 448" stroke="black"/>
<path d="M72 451L88 435M77 451L93 435M82 451L98 435M72 446L83 435M72 441L78 435M87 451L103 435M92 451L108 435M97 451L113 435M102 451L118 435M107 451L120 438M112 451L120 443M117 451L120 448" stroke="black"/>
<path d="M117 451L133 435M122 451L138 435M127 451L143 435M117 446L128 435M117 441L123 435M132 451L148 435M137 451L153 435M142 451L158 435M147 451L163 435M152 451L165 438M157 451L165 443M162 451L165 448" stroke="black"/>
<path d="M-18 466L-2 450M-13 466L3 450M-8 466L8 450M-18 461L-7 450M-18 456L-12 450M-3 466L13 450M2 466L18 450M7 466L23 450M12 466L28 450M17 466L30 453M22 466L30 458M27 466L30 463" stroke="black"/>
<path d="M27 466L43 450M32 466L48 450M37 466L53 450M27 461L38 450M27 456L33 450M42 466L58 450M47 466L63 450M52 466L68 450M57 466L73 450M62 466L75 453M67 466L75 458M72 466L75 463" stroke="black"/>
<path d="M72 466L88 450M77 466L93 450M82 466L98 450M72 461L83 450M72 456L78 450M87 466L103 450M92 466L108 450M97 466L113 450M102 466L118 450M107 466L120 453M112 466L120 458M117 466L120 463" stroke="black"/>
<path d="M117 466L133 450M122 466L138 450M127 466L143 450M117 461L128 450M117 456L123 450M132 466L148 450M137 466L153 450M142 466L158 450M147 466L163 450M152 466L165 453M157 466L165 458M162 466L165 463" stroke="black"/>
<path d="M-18 481L-2 465M-13 481L3 465M-8 481L8 465M-18 476L-7 465M-18 471L-12 465M-3 481L13 465M2 481L18 465M7 481L23 465M12 481L28 465M17 481L30 468M22 481L30 473M27 481L30 478" stroke="black"/>
<path d="M27 481L43 465M32 481L48 465M37 481L53 465M27 476L38 465M27 471L33 465M42 481L58 465M47 481L63 465M52 481L68 465M57 481L73 465M62 481L75 468M67 481L75 473M72 481L75 478" stroke="black"/>
<path d="M72 481L88 465M77 481L93 465M82 481L98 465M72 476L83 465M72 471L78 465M87 481L103 465M92 481L108 465M97 481L113 465M102 481L118 465M107 481L120 468M112 481L120 473M117 481L120 478" stroke="black"/>
<path d="M117 481L133 465M122 481L138 465M127 481L143 465M117 476L128 465M117 471L123 465M132 481L148 465M137 481L153 465M142 481L158 465M147 481L163 465M152 481L165 468M157 481L165 473M162 481L165 478" stroke="black"/>
<path d="M-18 496L-2 480M-13 496L3 480M-8 496L8 480M-18 491L-7 480M-18 486L-12 480M-3 496L13 480M2 496L18 480M7 496L23 480M12 496L28 480M17 496L30 483M22 496L30 488M27 496L30 493" stroke="black"/>
<path d="M27 496L43 480M32 496L48 480M37 496L53 480M27 491L38 480M27 486L33 480M42 496L58 480M47 496L63 480M52 496L68 480M57 496L73 480M62 496L75 483M67 496L75 488M72 496L75 493" stroke="black"/>
<path d="M72 496L88 480M77 496L93 480M82 496L98 480M72 491L83 480M72 486L78 480M87 496L103 480M92 496L108 480M97 496L113 480M102 496L118 480M107 496L120 483M112 496L120 488M117 496L120 493" stroke="black"/>
<path d="M117 496L133 480M122 496L138 480M127 496L143 480M117 491L128 480M117 486L123 480M132 496L148 480M137 496L153 480M142 496L158 480M147 496L163 480M152 496L165 483M157 496L165 488M162 496L165 493" stroke="black"/>
<path d="M-18 511L-2 495M-13 511L3 495M-8 511L8 495M-18 506L-7 495M-18 501L-12 495M-3 511L13 495M2 511L18 495M7 511L23 495M12 511L28 495M17 511L30 498M22 511L30 503M27 511L30 508" stroke="black"/>
<path d="M27 511L43 495M32 511L48 495M37 511L53 495M27 506L38 495M27 501L33 495M42 511L58 495M47 511L63 495M52 511L68 495M57 511L73 495M62 511L75 498M67 511L75 503M72 511L75 508" stroke="black"/>
<path d="M72 511L88 495M77 511L93 495M82 511L98 495M72 506L83 495M72 501L78 495M87 511L103 495M92 511L108 495M97 511L113 495M102 511L118 495M107 511L120 498M112 511L120 503M117 511L120 508" stroke="black"/>
<path d="M117 511L133 495M122 511L138 495M127 511L143 495M117 506L128 495M117 501L123 495M132 511L148 495M137 511L153 495M142 511L158 495M147 511L163 495M152 511L165 498M157 511L165 503M162 511L165 508" stroke="black"/>
<path d="M-18 526L-2 510M-13 526L3 510M-8 526L8 510M-18 521L-7 510M-18 516L-12 510M-3 526L13 510M2 526L18 510M7 526L23 510M12 526L28 510M17 526L30 513M22 526L30 518M27 526L30 523" stroke="black"/>
<path d="M27 526L43 510M32 526L48 510M37 526L53 510M27 521L38 510M27 516L33 510M42 526L58 510M47 526L63 510M52 526L68 510M57 526L73 510M62 526L75 513M67 526L75 518M72 526L75 523" stroke="black"/>
<path d="M72 526L88 510M77 526L93 510M82 526L98 510M72 521L83 510M72 516L78 510M87 526L103 510M92 526L108 510M97 526L113 510M102 526L118 510M107 526L120 513M112 526L120 518M117 526L120 523" stroke="black"/>
<path d="M117 526L133 510M122 526L138 510M127 526L143 510M117 521L128 510M117 516L123 510M132 526L148 510M137 526L153 510M142 526L158 510M147 526L163 510M152 526L165 513M157 526L165 518M162 526L165 523" stroke="black"/>
<path d="M-18 541L-2 525M-13 541L3 525M-8 541L8 525M-18 536L-7 525M-18 531L-12 525M-3 541L13 525M2 541L18 525M7 541L23 525M12 541L28 525M17 541L30 528M22 541L30 533M27 541L30 538" stroke="black"/>
<path d="M27 541L43 525M32 541L48 525M37 541L53 525M27 536L38 525M27 531L33 525M42 541L58 525M47 541L63 525M52 541L68 525M57 541L73 525M62 541L75 528M67 541L75 533M72 541L75 538" stroke="black"/>
<path d="M72 541L88 525M77 541L93 525M82 541L98 525M72 536L83 525M72 531L78 525M87 541L103 525M92 541L108 525M97 541L113 525M102 541L118 525M107 541L120 528M112 541L120 533M117 541L120 538" stroke="black"/>
<path d="M117 541L133 525M122 541L138 525M127 541L143 525M117 536L128 525M117 531L123 525M132 541L148 525M137 541L153 525M142 541L158 525M147 541L163 525M152 541L165 528M157 541L165 533M162 541L165 538" stroke="black"/>
<path d="M-18 556L-2 540M-13 556L3 540M-8 556L8 540M-18 551L-7 540M-18 546L-12 540M-3 556L13 540M2 556L18 540M7 556L23 540M12 556L28 540M17 556L30 543M22 556L30 548M27 556L30 553" stroke="black"/>
<path d="M27 556L43 540M32 556L48 540M37 556L53 540M27 551L38 540M27 546L33 540M42 556L58 540M47 556L63 540M52 556L68 540M57 556L73 540M62 556L75 543M67 556L75 548M72 556L75 553" stroke="black"/>
<path d="M72 556L88 540M77 556L93 540M82 556L98 540M72 551L83 540M72 546L78 540M87 556L103 540M92 556L108 540M97 556L113 540M102 556L118 540M107 556L120 543M112 556L120 548M117 556L120 553" stroke="black"/>
<path d="M117 556L133 540M122 556L138 540M127 556L143 540M117 551L128 540M117 546L123 540M132 556L148 540M137 556L153 540M142 556L158 540M147 556L163 540M152 556L165 543M157 556L165 548M162 556L165 553" stroke="black"/>
<path d="M-18 571L-2 555M-13 571L3 555M-8 571L8 555M-18 566L-7 555M-18 561L-12 555M-3 571L13 555M2 571L18 555M7 571L23 555M12 571L28 555M17 571L30 558M22 571L30 563M27 571L30 568" stroke="black"/>
<path d="M27 571L43 555M32 571L48 555M37 571L53 555M27 566L38 555M27 561L33 555M42 571L58 555M47 571L63 555M52 571L68 555M57 571L73 555M62 571L75 558M67 571L75 563M72 571L75 568" stroke="black"/>
<path d="M72 571L88 555M77 571L93 555M82 571L98 555M72 566L83 555M72 561L78 555M87 571L103 555M92 571L108 555M97 571L113 555M102 571L118 555M107 571L120 558M112 571L120 563M117 571L120 568" stroke="black"/>
<path d="M117 571L133 555M122 571L138 555M127 571L143 555M117 566L128 555M117 561L123 555M132 571L148 555M137 571L153 555M142 571L158 555M147 571L163 555M152 571L165 558M157 571L165 563M162 571L165 568" stroke="black"/>
<path d="M-18 586L-2 570M-13 586L3 570M-8 586L8 570M-18 581L-7 570M-18 576L-12 570M-3 586L13 570M2 586L18 570M7 586L23 570M12 586L28 570M17 586L30 573M22 586L30 578M27 586L30 583" stroke="black"/>
<path d="M27 586L43 570M32 586L48 570M37 586L53 570M27 581L38 570M27 576L33 570M42 586L58 570M47 586L63 570M52 586L68 570M57 586L73 570M62 586L75 573M67 586L75 578M72 586L75 583" stroke="black"/>
<path d="M72 586L88 570M77 586L93 570M82 586L98 570M72 581L83 570M72 576L78 570M87 586L103 570M92 586L108 570M97 586L113 570M102 586L118 570M107 586L120 573M112 586L120 578M117 586L120 583" stroke="black"/>
<path d="M117 586L133 570M122 586L138 570M127 586L143 570M117 581L128 570M117 576L123 570M132 586L148 570M137 586L153 570M142 586L158 570M147 586L163 570M152 586L165 573M157 586L165 578M162 586L165 583" stroke="black"/>
<path d="M-18 601L-2 585M-13 601L3 585M-8 601L8 585M-18 596L-7 585M-18 591L-12 585M-3 601L13 585M2 601L18 585M7 601L23 585M12 601L28 585M17 601L30 588M22 601L30 593M27 601L30 598" stroke="black"/>
<path d="M27 601L43 585M32 601L48 585M37 601L53 585M27 596L38 585M27 591L33 585M42 601L58 585M47 601L63 585M52 601L68 585M57 601L73 585M62 601L75 588M67 601L75 593M72 601L75 598" stroke="black"/>
<path d="M72 601L88 585M77 601L93 585M82 601L98 585M72 596L83 585M72 591L78 585M87 601L103 585M92 601L108 585M97 601L113 585M102 601L118 585M107 601L120 588M112 601L120 593M117 601L120 598" stroke="black"/>
<path d="M117 601L133 585M122 601L138 585M127 601L143 585M117 596L128 585M117 591L123 585M132 601L148 585M137 601L153 585M142 601L158 585M147 601L163 585M152 601L165 588M157 601L165 593M162 601L165 598" stroke="black"/>
<path d="M-18 616L-2 600M-13 616L3 600M-8 616L8 600M-18 611L-7 600M-18 606L-12 600M-3 616L13 600M2 616L18 600M7 616L23 600M12 616L28 600M17 616L30 603M22 616L30 608M27 616L30 613" stroke="black"/>
<path d="M27 616L43 600M32 616L48 600M37 616L53 600M27 611L38 600M27 606L33 600M42 616L58 600M47 616L63 600M52 616L68 600M57 616L73 600M62 616L75 603M67 616L75 608M72 616L75 613" stroke="black"/>
<path d="M72 616L88 600M77 616L93 600M82 616L98 600M72 611L83 600M72 606L78 600M87 616L103 600M92 616L108 600M97 616L113 600M102 616L118 600M107 616L120 603M112 616L120 608M117 616L120 613" stroke="black"/>
<path d="M117 616L133 600M122 616L138 600M127 616L143 600M117 611L128 600M117 606L123 600M132 616L148 600M137 616L153 600M142 616L158 600M147 616L163 600M152 616L165 603M157 616L165 608M162 616L165 613" stroke="black"/>
</g>
</g>
<rect x="0.5" y="0.5" width="145" height="1661" stroke="#E1E1E1"/>
<defs>
<clipPath id="clip0_1_29696">
<rect width="146" height="1662" fill="white"/>
</clipPath>
</defs>
</svg>
